<svg xmlns="http://www.w3.org/2000/svg" viewBox="0 0 7.86 12.93"><defs><style>.cls-1{fill:#c2b07e;}</style></defs><g id="Layer_2" data-name="Layer 2"><g id="Layer_2-2" data-name="Layer 2"><path class="cls-1" d="M7.83,4.15l-.3-.5-2.59.9a3.9,3.9,0,0,0,.85-2C5.78,1.4,4.92,0,3.87,0S2,1.44,2,2.62a4.05,4.05,0,0,0,.89,2L.29,3.73,0,4.23,0,7l.41.3,3-.88L2.1,12.24h0l.11.68,3.63,0,.09-.68L4.49,6.39l3,.8h0l.39-.3ZM4,4.73c-.23-.26-1.23-1.4-1.24-2.08A2.21,2.21,0,0,1,3.06,1.5,1.09,1.09,0,0,1,3.91.93h0a1.06,1.06,0,0,1,.84.55,2.19,2.19,0,0,1,.38,1.14A4.86,4.86,0,0,1,4,4.73Z"/></g></g></svg>