<svg xmlns="http://www.w3.org/2000/svg" viewBox="0 0 37.67 43.47"><defs><style>.cls-1{fill:none;stroke:#d3d1d3;stroke-miterlimit:10;stroke-width:0.25px;opacity:0.26;}</style></defs><g id="Layer_2" data-name="Layer 2"><g id="Layer_2-2" data-name="Layer 2"><path class="cls-1" d="M18.86.14.14,10.93V32.52L18.82,43.33l18.7-10.78,0-21.59ZM20,21.74c-.46,0-.91,0-1.36,0,25.84.77,13.58,22,0,0,.21.39.43.78.66,1.19-.23-.41-.46-.79-.69-1.17h0c12.26,22.75-12.25,22.75,0,0-.23.38-.47.75-.69,1.16.22-.41.45-.8.66-1.19-13.58,22-25.84.77,0,0-.44,0-.89,0-1.36,0,.47,0,.92,0,1.36,0-25.84-.77-13.58-22,0,0-.21-.39-.44-.78-.66-1.19.22.41.46.79.69,1.16-12.25-22.75,12.26-22.75,0,0h0c.23-.37.46-.75.69-1.16-.23.41-.45.8-.66,1.19,13.58-22,25.84-.77,0,0C19.07,21.74,19.52,21.74,20,21.74Z"/></g></g></svg>