<?xml version="1.0" encoding="utf-8"?>
<!-- Generator: Adobe Illustrator 24.2.0, SVG Export Plug-In . SVG Version: 6.00 Build 0)  -->
<svg version="1.1" id="Layer_1" xmlns="http://www.w3.org/2000/svg" xmlns:xlink="http://www.w3.org/1999/xlink" x="0px" y="0px"
	 viewBox="0 0 134.3 34.1" style="enable-background:new 0 0 134.3 34.1;" xml:space="preserve" preserveAspectRatio="none">
<style type="text/css">
	.st0{clip-path:url(#SVGID_2_);}
	.st1{fill:#141311;}
	.st2{fill:#151412;}
	.st3{fill:#161513;}
	.st4{fill:#171614;}
	.st5{fill:#181715;}
	.st6{fill:#191816;}
	.st7{fill:#1A1917;}
	.st8{fill:#1B1A18;}
	.st9{fill:#1C1B19;}
	.st10{fill:#1C1B1A;}
	.st11{fill:#1D1C1A;}
	.st12{fill:#1E1D1B;}
	.st13{fill:#1F1E1C;}
	.st14{fill:#201F1D;}
	.st15{fill:#20201E;}
	.st16{fill:#21201F;}
	.st17{fill:#222120;}
	.st18{fill:#232221;}
	.st19{fill:#242321;}
	.st20{fill:#252422;}
	.st21{fill:#262523;}
	.st22{fill:#272624;}
	.st23{fill:#272725;}
	.st24{fill:#282826;}
	.st25{fill:#292927;}
	.st26{fill:#2A2A28;}
	.st27{fill:#2B2A29;}
	.st28{fill:#2C2B2A;}
	.st29{fill:#2D2C2B;}
	.st30{fill:#2E2D2C;}
	.st31{fill:#2F2E2D;}
	.st32{fill:#302F2E;}
	.st33{fill:#31302F;}
	.st34{fill:#323130;}
	.st35{fill:#333231;}
	.st36{fill:#343332;}
	.st37{fill:#353433;}
	.st38{fill:#363534;}
	.st39{fill:#373635;}
	.st40{fill:#383736;}
	.st41{fill:#393937;}
	.st42{fill:#3A3A39;}
	.st43{fill:#3B3B3A;}
	.st44{fill:#3C3C3B;}
	.st45{fill:#3D3D3C;}
	.st46{fill:#3E3E3D;}
	.st47{fill:#3F3F3E;}
	.st48{fill:#40403F;}
	.st49{fill:#424140;}
	.st50{fill:#434241;}
	.st51{fill:#444342;}
	.st52{fill:#454444;}
	.st53{fill:#464545;}
	.st54{fill:#474746;}
	.st55{fill:#484847;}
	.st56{fill:#494948;}
	.st57{fill:#4A4A49;}
	.st58{fill:#4B4B4A;}
	.st59{fill:#4C4C4C;}
	.st60{fill:#4E4D4D;}
	.st61{fill:#4F4E4E;}
	.st62{fill:#50504F;}
	.st63{fill:#515150;}
	.st64{fill:#525251;}
	.st65{fill:#535353;}
	.st66{fill:#545454;}
	.st67{fill:#565555;}
	.st68{fill:#575756;}
	.st69{fill:#585857;}
	.st70{fill:#595959;}
	.st71{fill:#5A5A5A;}
	.st72{fill:#5B5B5B;}
	.st73{fill:#5D5C5C;}
	.st74{fill:#5E5E5D;}
	.st75{fill:#5F5F5F;}
	.st76{fill:#606060;}
	.st77{fill:#616161;}
	.st78{fill:#626262;}
	.st79{fill:#646464;}
	.st80{fill:#656565;}
	.st81{fill:#666666;}
	.st82{fill:url(#SVGID_3_);}
</style>
<g id="Layer_2-2">
	<g>
		<defs>
			<path id="SVGID_1_" d="M4.8,0.6h124.7c2.1,0,3.8,1.7,3.8,3.8v25.2c0,2.1-1.7,3.8-3.8,3.8H4.8c-2.1,0-3.8-1.7-3.8-3.8V4.4
				C1,2.3,2.7,0.6,4.8,0.6z"/>
		</defs>
		<clipPath id="SVGID_2_">
			<use xlink:href="#SVGID_1_"  style="overflow:visible;"/>
		</clipPath>
		<g class="st0">
			<rect x="1" y="28.2" class="st1" width="132.3" height="5.2"/>
			<rect x="1" y="27.9" class="st1" width="132.3" height="0.3"/>
			<rect x="1" y="27.6" class="st1" width="132.3" height="0.3"/>
			<rect x="1" y="27.2" class="st2" width="132.3" height="0.3"/>
			<rect x="1" y="26.9" class="st2" width="132.3" height="0.3"/>
			<rect x="1" y="26.6" class="st3" width="132.3" height="0.3"/>
			<rect x="1" y="26.3" class="st4" width="132.3" height="0.3"/>
			<rect x="1" y="25.9" class="st4" width="132.3" height="0.3"/>
			<rect x="1" y="25.6" class="st5" width="132.3" height="0.3"/>
			<rect x="1" y="25.3" class="st6" width="132.3" height="0.3"/>
			<rect x="1" y="25" class="st6" width="132.3" height="0.3"/>
			<rect x="1" y="24.6" class="st7" width="132.3" height="0.3"/>
			<rect x="1" y="24.3" class="st8" width="132.3" height="0.3"/>
			<rect x="1" y="24" class="st9" width="132.3" height="0.3"/>
			<rect x="1" y="23.7" class="st10" width="132.3" height="0.3"/>
			<rect x="1" y="23.3" class="st11" width="132.3" height="0.3"/>
			<rect x="1" y="23" class="st12" width="132.3" height="0.3"/>
			<rect x="1" y="22.7" class="st13" width="132.3" height="0.3"/>
			<rect x="1" y="22.4" class="st14" width="132.3" height="0.3"/>
			<rect x="1" y="22" class="st15" width="132.3" height="0.3"/>
			<rect x="1" y="21.7" class="st16" width="132.3" height="0.3"/>
			<rect x="1" y="21.4" class="st17" width="132.3" height="0.3"/>
			<rect x="1" y="21.1" class="st18" width="132.3" height="0.3"/>
			<rect x="1" y="20.8" class="st19" width="132.3" height="0.3"/>
			<rect x="1" y="20.4" class="st20" width="132.3" height="0.3"/>
			<rect x="1" y="20.1" class="st21" width="132.3" height="0.3"/>
			<rect x="1" y="19.8" class="st22" width="132.3" height="0.3"/>
			<rect x="1" y="19.5" class="st23" width="132.3" height="0.3"/>
			<rect x="1" y="19.1" class="st24" width="132.3" height="0.3"/>
			<rect x="1" y="18.8" class="st25" width="132.3" height="0.3"/>
			<rect x="1" y="18.5" class="st26" width="132.3" height="0.3"/>
			<rect x="1" y="18.1" class="st27" width="132.3" height="0.3"/>
			<rect x="1" y="17.8" class="st28" width="132.3" height="0.3"/>
			<rect x="1" y="17.5" class="st29" width="132.3" height="0.3"/>
			<rect x="1" y="17.2" class="st30" width="132.3" height="0.3"/>
			<rect x="1" y="16.9" class="st31" width="132.3" height="0.3"/>
			<rect x="1" y="16.5" class="st32" width="132.3" height="0.3"/>
			<rect x="1" y="16.2" class="st33" width="132.3" height="0.3"/>
			<rect x="1" y="15.9" class="st34" width="132.3" height="0.3"/>
			<rect x="1" y="15.6" class="st35" width="132.3" height="0.3"/>
			<rect x="1" y="15.2" class="st36" width="132.3" height="0.3"/>
			<rect x="1" y="14.9" class="st37" width="132.3" height="0.3"/>
			<rect x="1" y="14.6" class="st38" width="132.3" height="0.3"/>
			<rect x="1" y="14.3" class="st39" width="132.3" height="0.3"/>
			<rect x="1" y="13.9" class="st40" width="132.3" height="0.3"/>
			<rect x="1" y="13.6" class="st41" width="132.3" height="0.3"/>
			<rect x="1" y="13.3" class="st42" width="132.3" height="0.3"/>
			<rect x="1" y="12.9" class="st43" width="132.3" height="0.3"/>
			<rect x="1" y="12.6" class="st44" width="132.3" height="0.3"/>
			<rect x="1" y="12.3" class="st45" width="132.3" height="0.3"/>
			<rect x="1" y="12" class="st46" width="132.3" height="0.3"/>
			<rect x="1" y="11.7" class="st47" width="132.3" height="0.3"/>
			<rect x="1" y="11.3" class="st48" width="132.3" height="0.3"/>
			<rect x="1" y="11" class="st49" width="132.3" height="0.3"/>
			<rect x="1" y="10.7" class="st50" width="132.3" height="0.3"/>
			<rect x="1" y="10.4" class="st51" width="132.3" height="0.3"/>
			<rect x="1" y="10" class="st52" width="132.3" height="0.3"/>
			<rect x="1" y="9.7" class="st53" width="132.3" height="0.3"/>
			<rect x="1" y="9.4" class="st54" width="132.3" height="0.3"/>
			<rect x="1" y="9.1" class="st55" width="132.3" height="0.3"/>
			<rect x="1" y="8.7" class="st56" width="132.3" height="0.3"/>
			<rect x="1" y="8.4" class="st57" width="132.3" height="0.3"/>
			<rect x="1" y="8.1" class="st58" width="132.3" height="0.3"/>
			<rect x="1" y="7.8" class="st59" width="132.3" height="0.3"/>
			<rect x="1" y="7.4" class="st60" width="132.3" height="0.3"/>
			<rect x="1" y="7.1" class="st61" width="132.3" height="0.3"/>
			<rect x="1" y="6.8" class="st62" width="132.3" height="0.3"/>
			<rect x="1" y="6.5" class="st63" width="132.3" height="0.3"/>
			<rect x="1" y="6.1" class="st64" width="132.3" height="0.3"/>
			<rect x="1" y="5.8" class="st65" width="132.3" height="0.3"/>
			<rect x="1" y="5.5" class="st66" width="132.3" height="0.3"/>
			<rect x="1" y="5.2" class="st67" width="132.3" height="0.3"/>
			<rect x="1" y="4.8" class="st68" width="132.3" height="0.3"/>
			<rect x="1" y="4.5" class="st69" width="132.3" height="0.3"/>
			<rect x="1" y="4.2" class="st70" width="132.3" height="0.3"/>
			<rect x="1" y="3.9" class="st71" width="132.3" height="0.3"/>
			<rect x="1" y="3.5" class="st72" width="132.3" height="0.3"/>
			<rect x="1" y="3.2" class="st73" width="132.3" height="0.3"/>
			<rect x="1" y="2.9" class="st74" width="132.3" height="0.3"/>
			<rect x="1" y="2.6" class="st75" width="132.3" height="0.3"/>
			<rect x="1" y="2.2" class="st76" width="132.3" height="0.3"/>
			<rect x="1" y="1.9" class="st77" width="132.3" height="0.3"/>
			<rect x="1" y="1.6" class="st78" width="132.3" height="0.3"/>
			<rect x="1" y="1.3" class="st79" width="132.3" height="0.3"/>
			<rect x="1" y="0.9" class="st80" width="132.3" height="0.3"/>
			<rect x="1" y="0.6" class="st81" width="132.3" height="0.3"/>
			<path class="st81" d="M133.3,0.6L133.3,0.6z"/>
		</g>
	</g>
	
		<linearGradient id="SVGID_3_" gradientUnits="userSpaceOnUse" x1="0" y1="18.97" x2="134.3" y2="18.97" gradientTransform="matrix(1 0 0 -1 0 36)">
		<stop  offset="8.000000e-02" style="stop-color:#754C24"/>
		<stop  offset="0.28" style="stop-color:#C2B07E"/>
		<stop  offset="0.31" style="stop-color:#C7B688"/>
		<stop  offset="0.37" style="stop-color:#D3C6A2"/>
		<stop  offset="0.44" style="stop-color:#E7E0CD"/>
		<stop  offset="0.51" style="stop-color:#FFFFFF"/>
		<stop  offset="0.53" style="stop-color:#F4F1E8"/>
		<stop  offset="0.59" style="stop-color:#DFD5BB"/>
		<stop  offset="0.65" style="stop-color:#CFC19A"/>
		<stop  offset="0.69" style="stop-color:#C5B485"/>
		<stop  offset="0.72" style="stop-color:#C2B07E"/>
		<stop  offset="0.94" style="stop-color:#754C24"/>
	</linearGradient>
	<path class="st82" d="M128,34.1H6.3c-3.5,0-6.3-2.8-6.3-6.3V6.3C0,2.8,2.8,0,6.3,0c0,0,0,0,0,0H128c3.5,0,6.3,2.8,6.3,6.3v21.5
		C134.3,31.2,131.5,34.1,128,34.1z M6.3,1C3.4,1,1,3.4,1,6.3v21.5c0,2.9,2.4,5.3,5.3,5.3H128c2.9,0,5.3-2.4,5.3-5.3V6.3
		c0-2.9-2.4-5.3-5.3-5.3H6.3z"/>
</g>
</svg>
