<svg xmlns="http://www.w3.org/2000/svg" xmlns:xlink="http://www.w3.org/1999/xlink" viewBox="0 0 11.86 9.59"><defs><style>.cls-1{fill:none;}.cls-2{clip-path:url(#clip-path);}.cls-3{fill:#efa0d7;}.cls-4{fill:#ee9fd6;}.cls-5{fill:#ed9dd5;}.cls-6{fill:#ec9cd5;}.cls-7{fill:#eb9bd4;}.cls-8{fill:#ea99d3;}.cls-9{fill:#e998d2;}.cls-10{fill:#e897d2;}.cls-11{fill:#e795d1;}.cls-12{fill:#e694d0;}.cls-13{fill:#e593cf;}.cls-14{fill:#e492ce;}.cls-15{fill:#e390ce;}.cls-16{fill:#e28fcd;}.cls-17{fill:#e18ecc;}.cls-18{fill:#e08ccb;}.cls-19{fill:#df8bcb;}.cls-20{fill:#de8aca;}.cls-21{fill:#dd89c9;}.cls-22{fill:#dc87c8;}.cls-23{fill:#db86c8;}.cls-24{fill:#da85c7;}.cls-25{fill:#d984c6;}.cls-26{fill:#d882c5;}.cls-27{fill:#d881c5;}.cls-28{fill:#d780c4;}.cls-29{fill:#d67fc3;}.cls-30{fill:#d57dc2;}.cls-31{fill:#d47cc2;}.cls-32{fill:#d37bc1;}.cls-33{fill:#d27ac0;}.cls-34{fill:#d179c0;}.cls-35{fill:#d077bf;}.cls-36{fill:#cf76be;}.cls-37{fill:#ce75bd;}.cls-38{fill:#cd74bd;}.cls-39{fill:#cc73bc;}.cls-40{fill:#cc71bb;}.cls-41{fill:#cb70bb;}.cls-42{fill:#ca6fba;}.cls-43{fill:#c96eb9;}.cls-44{fill:#c86db8;}.cls-45{fill:#c76bb8;}.cls-46{fill:#c66ab7;}.cls-47{fill:#c569b6;}.cls-48{fill:#c468b6;}.cls-49{fill:#c467b5;}.cls-50{fill:#c366b4;}.cls-51{fill:#c265b4;}.cls-52{fill:#c163b3;}.cls-53{fill:#c062b2;}.cls-54{fill:#bf61b2;}.cls-55{fill:#be60b1;}.cls-56{fill:#be5fb0;}.cls-57{fill:#bd5eb0;}.cls-58{fill:#bc5daf;}.cls-59{fill:#bb5cae;}.cls-60{fill:#ba5bae;}.cls-61{fill:#b95aad;}.cls-62{fill:#b958ac;}.cls-63{fill:#b857ac;}.cls-64{fill:#b756ab;}.cls-65{fill:#b655ab;}.cls-66{fill:#b554aa;}.cls-67{fill:#b553a9;}.cls-68{fill:#b452a9;}.cls-69{fill:#b351a8;}.cls-70{fill:#b250a7;}.cls-71{fill:#b14fa7;}.cls-72{fill:#b14ea6;}.cls-73{fill:#b04da6;}.cls-74{fill:#af4ca5;}.cls-75{fill:#ae4ba4;}.cls-76{fill:#ae4aa4;}.cls-77{fill:#ad49a3;}.cls-78{fill:#ac48a3;}.cls-79{fill:#ab47a2;}.cls-80{fill:#ab46a2;}.cls-81{fill:#aa45a1;}.cls-82{fill:#a944a0;}.cls-83{fill:#a943a0;}.cls-84{fill:#a8429f;}.cls-85{fill:#a7419f;}.cls-86{fill:#a6419e;}.cls-87{fill:#a6409e;}.cls-88{fill:#a53f9d;}.cls-89{fill:#a43e9d;}.cls-90{fill:#a43d9c;}.cls-91{fill:#a33c9c;}.cls-92{fill:#a23b9b;}.cls-93{fill:#a23a9b;}.cls-94{fill:#a13a9a;}.cls-95{fill:#a0399a;}.cls-96{fill:#a03899;}.cls-97{fill:#9f3799;}.cls-98{fill:#9f3698;}.cls-99{fill:#9e3598;}.cls-100{fill:#9d3597;}.cls-101{fill:#9d3497;}.cls-102{fill:#9c3396;}.cls-103{fill:#9c3296;}.cls-104{fill:#9b3295;}.cls-105{fill:#9a3195;}.cls-106{fill:#9a3094;}.cls-107{fill:#992f94;}.cls-108{fill:#982e93;}.cls-109{fill:#982d93;}.cls-110{fill:#972d92;}.cls-111{fill:#972c92;}.cls-112{fill:#962c92;}.cls-113{fill:#962b91;}.cls-114{fill:#962a91;}.cls-115{fill:#952a91;}.cls-116{fill:#952990;}.cls-117{fill:#942990;}.cls-118{fill:#942890;}.cls-119{fill:#93288f;}.cls-120{fill:#93278f;}.cls-121{fill:#92278f;}.cls-122{fill:#91278e;}.cls-123{fill:#90268e;}.cls-124{fill:#8f268d;}.cls-125{fill:#8e268d;}.cls-126{fill:#8d268d;}.cls-127{fill:#8c258c;}.cls-128{fill:#8b258c;}.cls-129{fill:#8a258b;}.cls-130{fill:#89258b;}.cls-131{fill:#88248b;}.cls-132{fill:#87248a;}.cls-133{fill:#86248a;}.cls-134{fill:#852489;}.cls-135{fill:#842389;}.cls-136{fill:#832388;}.cls-137{fill:#822388;}.cls-138{fill:#812388;}.cls-139{fill:#802287;}.cls-140{fill:#7f2287;}.cls-141{fill:#7e2286;}.cls-142{fill:#7d2286;}.cls-143{fill:#7c2186;}.cls-144{fill:#7b2185;}.cls-145{fill:#7a2185;}.cls-146{fill:#792184;}.cls-147{fill:#782084;}.cls-148{fill:#772084;}.cls-149{fill:#762083;}.cls-150{fill:#752083;}.cls-151{fill:#741f82;}.cls-152{fill:#731f82;}.cls-153{fill:#721f82;}.cls-154{fill:#711f81;}.cls-155{fill:#701e81;}.cls-156{fill:#6f1e80;}.cls-157{fill:#6e1e80;}.cls-158{fill:#6d1e7f;}.cls-159{fill:#6c1e7f;}.cls-160{fill:#6b1d7f;}.cls-161{fill:#6a1d7e;}.cls-162{fill:#691d7e;}.cls-163{fill:#681d7d;}.cls-164{fill:#671c7d;}.cls-165{fill:#661c7d;}.cls-166{fill:#651c7c;}.cls-167{fill:#641c7c;}.cls-168{fill:#631b7b;}.cls-169{fill:#621b7b;}.cls-170{fill:#611b7b;}.cls-171{fill:#601b7a;}.cls-172{fill:#5f1a7a;}.cls-173{fill:#5e1a79;}.cls-174{fill:#5d1a79;}.cls-175{fill:#5c1a79;}.cls-176{fill:#5b1978;}.cls-177{fill:#5a1978;}.cls-178{fill:#581977;}.cls-179{fill:#571977;}.cls-180{fill:#561876;}.cls-181{fill:#551876;}.cls-182{fill:#541876;}.cls-183{fill:#531875;}.cls-184{fill:#521775;}.cls-185{fill:#511774;}.cls-186{fill:#501774;}.cls-187{fill:#4f1774;}.cls-188{fill:#4e1673;}.cls-189{fill:#4d1673;}.cls-190{fill:#4c1672;}.cls-191{fill:#4b1672;}.cls-192{fill:#4a1572;}.cls-193{fill:#491571;}.cls-194{fill:#481571;}.cls-195{fill:#471570;}.cls-196{fill:#461470;}.cls-197{fill:#451470;}.cls-198{fill:#44146f;}.cls-199{fill:#43146f;}.cls-200{fill:#42146e;}.cls-201{fill:#41136e;}.cls-202{fill:#40136d;}.cls-203{fill:#3f136d;}.cls-204{fill:#3e136d;}.cls-205{fill:#3d126c;}.cls-206{fill:#3c126c;}.cls-207{fill:#3b126b;}.cls-208{fill:#3a126b;}.cls-209{fill:#39116b;}.cls-210{fill:#38116a;}.cls-211{fill:#37116a;}.cls-212{fill:#361169;}.cls-213{fill:#351069;}.cls-214{fill:#341069;}.cls-215{fill:#331068;}.cls-216{fill:#321068;}.cls-217{fill:#310f67;}.cls-218{fill:#300f67;}.cls-219{fill:#2f0f67;}.cls-220{fill:#2e0f66;}.cls-221{fill:#2d0e66;}.cls-222{fill:#2c0e65;}.cls-223{fill:#2b0e65;}.cls-224{fill:#2a0e64;}.cls-225{fill:#290d64;}.cls-226{fill:#280d64;}.cls-227{fill:#270d63;}.cls-228{fill:#260d63;}.cls-229{fill:#250c62;}.cls-230{fill:#240c62;}.cls-231{fill:#230c62;}.cls-232{fill:#220c61;}.cls-233{fill:#210b61;}.cls-234{fill:#200b60;}.cls-235{fill:#1f0b60;}.cls-236{clip-path:url(#clip-path-2);}.cls-237{clip-path:url(#clip-path-3);}.cls-238{fill:url(#New_Gradient_Swatch_1);}</style><clipPath id="clip-path"><polygon id="SVGID" class="cls-1" points="6.08 0.34 11.45 4.79 6.09 9.26 0.42 4.81 6.08 0.34"/></clipPath><clipPath id="clip-path-2"><path id="SVGID-2" data-name="SVGID" class="cls-1" d="M10.89,4.74H6.08v-4S11,4.74,10.89,4.74Z"/></clipPath><clipPath id="clip-path-3"><path id="SVGID-3" data-name="SVGID" class="cls-1" d="M1.34,4.85h4.8v4S1.27,4.85,1.34,4.85Z"/></clipPath><linearGradient id="New_Gradient_Swatch_1" x1="-2398.92" y1="4147.81" x2="-2404.85" y2="4153.74" gradientTransform="translate(4160.87 2399.48) rotate(89.9)" gradientUnits="userSpaceOnUse"><stop offset="0.08" stop-color="#754c24"/><stop offset="0.28" stop-color="#c2b07e"/><stop offset="0.31" stop-color="#c7b688"/><stop offset="0.37" stop-color="#d3c6a2"/><stop offset="0.44" stop-color="#e7e0cd"/><stop offset="0.51" stop-color="#fff"/><stop offset="0.53" stop-color="#f4f1e8"/><stop offset="0.59" stop-color="#dfd5bb"/><stop offset="0.65" stop-color="#cfc19a"/><stop offset="0.69" stop-color="#c5b485"/><stop offset="0.72" stop-color="#c2b07e"/><stop offset="0.94" stop-color="#754c24"/></linearGradient></defs><g id="Layer_2" data-name="Layer 2"><g id="Layer_2-2" data-name="Layer 2"><g class="cls-2"><path class="cls-3" d="M.41.35l0,8.92Z"/><rect class="cls-3" x="0.42" y="0.35" width="0.04" height="8.92" transform="translate(-0.01 0) rotate(-0.1)"/><rect class="cls-4" x="0.46" y="0.34" width="0.04" height="8.92" transform="translate(-0.01 0) rotate(-0.1)"/><rect class="cls-5" x="0.51" y="0.34" width="0.04" height="8.92" transform="translate(-0.01 0) rotate(-0.1)"/><rect class="cls-6" x="0.55" y="0.34" width="0.04" height="8.92" transform="translate(-0.01 0) rotate(-0.1)"/><rect class="cls-7" x="0.6" y="0.34" width="0.04" height="8.92" transform="translate(-0.01 0) rotate(-0.1)"/><rect class="cls-8" x="0.64" y="0.34" width="0.04" height="8.92" transform="translate(-0.01 0) rotate(-0.1)"/><rect class="cls-9" x="0.68" y="0.34" width="0.04" height="8.92" transform="translate(-0.01 0) rotate(-0.1)"/><rect class="cls-10" x="0.73" y="0.34" width="0.04" height="8.92" transform="translate(-0.01 0) rotate(-0.1)"/><rect class="cls-11" x="0.77" y="0.34" width="0.04" height="8.92" transform="translate(-0.01 0) rotate(-0.1)"/><rect class="cls-12" x="0.82" y="0.34" width="0.04" height="8.92" transform="translate(-0.01 0) rotate(-0.1)"/><rect class="cls-13" x="0.86" y="0.34" width="0.04" height="8.92" transform="translate(-0.01 0) rotate(-0.1)"/><rect class="cls-14" x="0.9" y="0.34" width="0.04" height="8.92" transform="translate(-0.01 0) rotate(-0.1)"/><rect class="cls-15" x="0.95" y="0.34" width="0.04" height="8.92" transform="translate(-0.01 0) rotate(-0.1)"/><rect class="cls-16" x="0.99" y="0.34" width="0.04" height="8.92" transform="translate(-0.01 0) rotate(-0.1)"/><rect class="cls-17" x="1.03" y="0.34" width="0.04" height="8.92" transform="translate(-0.01 0) rotate(-0.1)"/><rect class="cls-18" x="1.08" y="0.34" width="0.04" height="8.92" transform="translate(-0.01 0) rotate(-0.1)"/><rect class="cls-19" x="1.12" y="0.34" width="0.04" height="8.92" transform="translate(-0.01 0) rotate(-0.1)"/><rect class="cls-20" x="1.17" y="0.34" width="0.04" height="8.92" transform="translate(-0.01 0) rotate(-0.1)"/><rect class="cls-21" x="1.21" y="0.34" width="0.04" height="8.92" transform="translate(-0.01 0) rotate(-0.1)"/><rect class="cls-22" x="1.25" y="0.34" width="0.04" height="8.92" transform="translate(-0.01 0) rotate(-0.1)"/><rect class="cls-23" x="1.3" y="0.34" width="0.04" height="8.92" transform="translate(-0.01 0) rotate(-0.1)"/><rect class="cls-24" x="1.34" y="0.34" width="0.04" height="8.92" transform="translate(-0.01 0) rotate(-0.1)"/><rect class="cls-25" x="1.38" y="0.34" width="0.04" height="8.92" transform="translate(-0.01 0) rotate(-0.1)"/><rect class="cls-26" x="1.43" y="0.34" width="0.04" height="8.92" transform="translate(-0.01 0) rotate(-0.1)"/><rect class="cls-27" x="1.47" y="0.34" width="0.04" height="8.92" transform="translate(-0.01 0) rotate(-0.1)"/><rect class="cls-28" x="1.52" y="0.34" width="0.04" height="8.92" transform="translate(-0.01 0) rotate(-0.1)"/><rect class="cls-29" x="1.56" y="0.34" width="0.04" height="8.92" transform="translate(-0.01 0) rotate(-0.1)"/><rect class="cls-30" x="1.6" y="0.34" width="0.04" height="8.92" transform="translate(-0.01 0) rotate(-0.1)"/><rect class="cls-31" x="1.65" y="0.34" width="0.04" height="8.92" transform="translate(-0.01 0) rotate(-0.1)"/><rect class="cls-32" x="1.69" y="0.34" width="0.04" height="8.92" transform="translate(-0.01 0) rotate(-0.1)"/><rect class="cls-33" x="1.73" y="0.34" width="0.04" height="8.92" transform="translate(-0.01 0) rotate(-0.1)"/><rect class="cls-34" x="1.78" y="0.34" width="0.04" height="8.92" transform="translate(-0.01 0) rotate(-0.1)"/><rect class="cls-35" x="1.82" y="0.34" width="0.04" height="8.92" transform="translate(-0.01 0) rotate(-0.1)"/><rect class="cls-36" x="1.87" y="0.34" width="0.04" height="8.92" transform="translate(-0.01 0) rotate(-0.1)"/><rect class="cls-37" x="1.91" y="0.34" width="0.04" height="8.92" transform="translate(-0.01 0) rotate(-0.1)"/><rect class="cls-38" x="1.95" y="0.34" width="0.04" height="8.92" transform="translate(-0.01 0) rotate(-0.1)"/><rect class="cls-39" x="2" y="0.34" width="0.04" height="8.92" transform="translate(-0.01 0) rotate(-0.1)"/><rect class="cls-40" x="2.04" y="0.34" width="0.04" height="8.92" transform="translate(-0.01 0) rotate(-0.1)"/><rect class="cls-41" x="2.08" y="0.34" width="0.04" height="8.92" transform="translate(-0.01 0) rotate(-0.1)"/><rect class="cls-42" x="2.13" y="0.34" width="0.04" height="8.92" transform="translate(-0.01 0) rotate(-0.1)"/><rect class="cls-43" x="2.17" y="0.34" width="0.04" height="8.92" transform="translate(-0.01 0) rotate(-0.1)"/><rect class="cls-44" x="2.22" y="0.34" width="0.04" height="8.92" transform="translate(-0.01 0) rotate(-0.1)"/><rect class="cls-45" x="2.26" y="0.34" width="0.04" height="8.92" transform="translate(-0.01 0) rotate(-0.1)"/><rect class="cls-46" x="2.3" y="0.34" width="0.04" height="8.92" transform="translate(-0.01 0) rotate(-0.1)"/><rect class="cls-47" x="2.35" y="0.34" width="0.04" height="8.92" transform="translate(-0.01 0) rotate(-0.1)"/><rect class="cls-48" x="2.39" y="0.34" width="0.04" height="8.92" transform="translate(-0.01 0) rotate(-0.1)"/><rect class="cls-49" x="2.44" y="0.34" width="0.04" height="8.92" transform="translate(-0.01 0) rotate(-0.1)"/><rect class="cls-50" x="2.48" y="0.34" width="0.04" height="8.92" transform="translate(-0.01 0) rotate(-0.1)"/><rect class="cls-51" x="2.52" y="0.34" width="0.04" height="8.92" transform="translate(-0.01 0) rotate(-0.1)"/><rect class="cls-52" x="2.57" y="0.34" width="0.04" height="8.92" transform="translate(-0.01 0) rotate(-0.1)"/><rect class="cls-53" x="2.61" y="0.34" width="0.04" height="8.92" transform="translate(-0.01 0) rotate(-0.1)"/><rect class="cls-54" x="2.65" y="0.34" width="0.04" height="8.92" transform="translate(-0.01 0) rotate(-0.1)"/><rect class="cls-55" x="2.7" y="0.34" width="0.04" height="8.92" transform="translate(-0.01 0) rotate(-0.1)"/><rect class="cls-56" x="2.74" y="0.34" width="0.04" height="8.92" transform="translate(-0.01 0) rotate(-0.1)"/><rect class="cls-57" x="2.79" y="0.34" width="0.04" height="8.92" transform="translate(-0.01 0) rotate(-0.1)"/><rect class="cls-58" x="2.83" y="0.34" width="0.04" height="8.92" transform="translate(-0.01 0) rotate(-0.1)"/><rect class="cls-59" x="2.87" y="0.34" width="0.04" height="8.92" transform="translate(-0.01 0.01) rotate(-0.1)"/><rect class="cls-60" x="2.92" y="0.34" width="0.04" height="8.92" transform="translate(-0.01 0.01) rotate(-0.1)"/><rect class="cls-61" x="2.96" y="0.34" width="0.04" height="8.92" transform="translate(-0.01 0.01) rotate(-0.1)"/><rect class="cls-62" x="3" y="0.34" width="0.04" height="8.92" transform="translate(-0.01 0.01) rotate(-0.1)"/><rect class="cls-63" x="3.05" y="0.34" width="0.04" height="8.92" transform="translate(-0.01 0.01) rotate(-0.1)"/><rect class="cls-64" x="3.09" y="0.34" width="0.04" height="8.92" transform="translate(-0.01 0.01) rotate(-0.1)"/><rect class="cls-65" x="3.14" y="0.34" width="0.04" height="8.92" transform="translate(-0.01 0.01) rotate(-0.1)"/><rect class="cls-66" x="3.18" y="0.34" width="0.04" height="8.92" transform="translate(-0.01 0.01) rotate(-0.1)"/><rect class="cls-67" x="3.22" y="0.34" width="0.04" height="8.92" transform="translate(-0.01 0.01) rotate(-0.1)"/><rect class="cls-68" x="3.27" y="0.34" width="0.04" height="8.92" transform="translate(-0.01 0.01) rotate(-0.1)"/><rect class="cls-69" x="3.31" y="0.34" width="0.04" height="8.92" transform="translate(-0.01 0.01) rotate(-0.1)"/><rect class="cls-70" x="3.35" y="0.34" width="0.04" height="8.92" transform="translate(-0.01 0.01) rotate(-0.1)"/><rect class="cls-71" x="3.4" y="0.34" width="0.04" height="8.92" transform="translate(-0.01 0.01) rotate(-0.1)"/><rect class="cls-72" x="3.44" y="0.34" width="0.04" height="8.92" transform="translate(-0.01 0.01) rotate(-0.1)"/><rect class="cls-73" x="3.49" y="0.34" width="0.04" height="8.92" transform="translate(-0.01 0.01) rotate(-0.1)"/><rect class="cls-74" x="3.53" y="0.34" width="0.04" height="8.92" transform="translate(-0.01 0.01) rotate(-0.1)"/><rect class="cls-75" x="3.57" y="0.34" width="0.04" height="8.92" transform="translate(-0.01 0.01) rotate(-0.1)"/><rect class="cls-76" x="3.62" y="0.34" width="0.04" height="8.92" transform="translate(-0.01 0.01) rotate(-0.1)"/><rect class="cls-77" x="3.66" y="0.34" width="0.04" height="8.92" transform="translate(-0.01 0.01) rotate(-0.1)"/><rect class="cls-78" x="3.71" y="0.34" width="0.04" height="8.92" transform="translate(-0.01 0.01) rotate(-0.1)"/><rect class="cls-79" x="3.75" y="0.34" width="0.04" height="8.92" transform="translate(-0.01 0.01) rotate(-0.1)"/><rect class="cls-80" x="3.79" y="0.34" width="0.04" height="8.92" transform="translate(-0.01 0.01) rotate(-0.1)"/><rect class="cls-81" x="3.84" y="0.34" width="0.04" height="8.92" transform="translate(-0.01 0.01) rotate(-0.1)"/><rect class="cls-82" x="3.88" y="0.34" width="0.04" height="8.92" transform="translate(-0.01 0.01) rotate(-0.1)"/><rect class="cls-83" x="3.92" y="0.34" width="0.04" height="8.92" transform="translate(-0.01 0.01) rotate(-0.1)"/><rect class="cls-84" x="3.97" y="0.34" width="0.04" height="8.92" transform="translate(-0.01 0.01) rotate(-0.1)"/><rect class="cls-85" x="4.01" y="0.34" width="0.04" height="8.92" transform="translate(-0.01 0.01) rotate(-0.1)"/><rect class="cls-86" x="4.06" y="0.34" width="0.04" height="8.92" transform="translate(-0.01 0.01) rotate(-0.1)"/><rect class="cls-87" x="4.1" y="0.34" width="0.04" height="8.92" transform="translate(-0.01 0.01) rotate(-0.1)"/><rect class="cls-88" x="4.14" y="0.34" width="0.04" height="8.92" transform="translate(-0.01 0.01) rotate(-0.1)"/><rect class="cls-89" x="4.19" y="0.34" width="0.04" height="8.92" transform="translate(-0.01 0.01) rotate(-0.1)"/><rect class="cls-90" x="4.23" y="0.34" width="0.04" height="8.92" transform="translate(-0.01 0.01) rotate(-0.1)"/><rect class="cls-91" x="4.27" y="0.34" width="0.04" height="8.92" transform="translate(-0.01 0.01) rotate(-0.1)"/><rect class="cls-92" x="4.32" y="0.34" width="0.04" height="8.92" transform="translate(-0.01 0.01) rotate(-0.1)"/><rect class="cls-93" x="4.36" y="0.34" width="0.04" height="8.92" transform="translate(-0.01 0.01) rotate(-0.1)"/><rect class="cls-94" x="4.41" y="0.34" width="0.04" height="8.92" transform="translate(-0.01 0.01) rotate(-0.1)"/><rect class="cls-95" x="4.45" y="0.34" width="0.04" height="8.92" transform="translate(-0.01 0.01) rotate(-0.1)"/><rect class="cls-96" x="4.49" y="0.34" width="0.04" height="8.92" transform="translate(-0.01 0.01) rotate(-0.1)"/><rect class="cls-97" x="4.54" y="0.34" width="0.04" height="8.92" transform="translate(-0.01 0.01) rotate(-0.1)"/><rect class="cls-98" x="4.58" y="0.34" width="0.04" height="8.92" transform="translate(-0.01 0.01) rotate(-0.1)"/><rect class="cls-99" x="4.62" y="0.34" width="0.04" height="8.92" transform="translate(-0.01 0.01) rotate(-0.1)"/><rect class="cls-100" x="4.67" y="0.34" width="0.04" height="8.92" transform="translate(-0.01 0.01) rotate(-0.1)"/><rect class="cls-101" x="4.71" y="0.34" width="0.04" height="8.92" transform="translate(-0.01 0.01) rotate(-0.1)"/><rect class="cls-102" x="4.76" y="0.34" width="0.04" height="8.92" transform="translate(-0.01 0.01) rotate(-0.1)"/><rect class="cls-103" x="4.8" y="0.34" width="0.04" height="8.92" transform="translate(-0.01 0.01) rotate(-0.1)"/><rect class="cls-104" x="4.84" y="0.34" width="0.04" height="8.92" transform="translate(-0.01 0.01) rotate(-0.1)"/><rect class="cls-105" x="4.89" y="0.34" width="0.04" height="8.92" transform="translate(-0.01 0.01) rotate(-0.1)"/><rect class="cls-106" x="4.93" y="0.34" width="0.04" height="8.92" transform="translate(-0.01 0.01) rotate(-0.1)"/><rect class="cls-107" x="4.97" y="0.34" width="0.04" height="8.92" transform="translate(-0.01 0.01) rotate(-0.1)"/><rect class="cls-107" x="5.02" y="0.34" width="0.04" height="8.92" transform="translate(-0.01 0.01) rotate(-0.1)"/><rect class="cls-108" x="5.06" y="0.34" width="0.04" height="8.92" transform="translate(-0.01 0.01) rotate(-0.1)"/><rect class="cls-109" x="5.11" y="0.34" width="0.04" height="8.92" transform="translate(-0.01 0.01) rotate(-0.1)"/><rect class="cls-110" x="5.15" y="0.34" width="0.04" height="8.92" transform="translate(-0.01 0.01) rotate(-0.1)"/><rect class="cls-111" x="5.19" y="0.34" width="0.04" height="8.92" transform="translate(-0.01 0.01) rotate(-0.1)"/><rect class="cls-112" x="5.24" y="0.34" width="0.04" height="8.92" transform="translate(-0.01 0.01) rotate(-0.1)"/><rect class="cls-113" x="5.28" y="0.34" width="0.04" height="8.92" transform="translate(-0.01 0.01) rotate(-0.1)"/><rect class="cls-114" x="5.33" y="0.34" width="0.04" height="8.92" transform="translate(-0.01 0.01) rotate(-0.1)"/><rect class="cls-115" x="5.37" y="0.34" width="0.04" height="8.92" transform="translate(-0.01 0.01) rotate(-0.1)"/><rect class="cls-116" x="5.41" y="0.34" width="0.04" height="8.92" transform="translate(-0.01 0.01) rotate(-0.1)"/><rect class="cls-117" x="5.46" y="0.34" width="0.04" height="8.92" transform="translate(-0.01 0.01) rotate(-0.1)"/><rect class="cls-118" x="5.5" y="0.34" width="0.04" height="8.92" transform="translate(-0.01 0.01) rotate(-0.1)"/><rect class="cls-118" x="5.54" y="0.34" width="0.04" height="8.92" transform="translate(-0.01 0.01) rotate(-0.1)"/><rect class="cls-119" x="5.59" y="0.34" width="0.04" height="8.92" transform="translate(-0.01 0.01) rotate(-0.1)"/><rect class="cls-120" x="5.63" y="0.34" width="0.04" height="8.92" transform="translate(-0.01 0.01) rotate(-0.1)"/><rect class="cls-120" x="5.68" y="0.34" width="0.04" height="8.92" transform="translate(-0.01 0.01) rotate(-0.1)"/><rect class="cls-120" x="5.72" y="0.34" width="0.04" height="8.92" transform="translate(-0.01 0.01) rotate(-0.1)"/><rect class="cls-121" x="5.76" y="0.34" width="0.04" height="8.92" transform="translate(-0.01 0.01) rotate(-0.1)"/><rect class="cls-122" x="5.8" y="0.34" width="0.04" height="8.92" transform="translate(-0.01 0.01) rotate(-0.1)"/><rect class="cls-123" x="5.85" y="0.34" width="0.04" height="8.92" transform="translate(-0.01 0.01) rotate(-0.1)"/><rect class="cls-124" x="5.89" y="0.34" width="0.04" height="8.92" transform="translate(-0.01 0.01) rotate(-0.1)"/><rect class="cls-125" x="5.93" y="0.34" width="0.04" height="8.92" transform="translate(-0.01 0.01) rotate(-0.1)"/><rect class="cls-126" x="5.97" y="0.34" width="0.04" height="8.92" transform="translate(-0.01 0.01) rotate(-0.1)"/><rect class="cls-127" x="6.01" y="0.34" width="0.04" height="8.92" transform="translate(-0.01 0.01) rotate(-0.1)"/><rect class="cls-128" x="6.06" y="0.34" width="0.04" height="8.92" transform="translate(-0.01 0.01) rotate(-0.1)"/><rect class="cls-129" x="6.1" y="0.34" width="0.04" height="8.92" transform="translate(-0.01 0.01) rotate(-0.1)"/><rect class="cls-130" x="6.14" y="0.34" width="0.04" height="8.92" transform="translate(-0.01 0.01) rotate(-0.1)"/><rect class="cls-131" x="6.18" y="0.34" width="0.04" height="8.92" transform="translate(-0.01 0.01) rotate(-0.1)"/><rect class="cls-132" x="6.23" y="0.34" width="0.04" height="8.92" transform="translate(-0.01 0.01) rotate(-0.1)"/><rect class="cls-133" x="6.27" y="0.33" width="0.04" height="8.92" transform="translate(-0.01 0.01) rotate(-0.1)"/><rect class="cls-134" x="6.31" y="0.33" width="0.04" height="8.92" transform="translate(-0.01 0.01) rotate(-0.1)"/><rect class="cls-135" x="6.35" y="0.33" width="0.04" height="8.92" transform="translate(-0.01 0.01) rotate(-0.1)"/><rect class="cls-136" x="6.39" y="0.33" width="0.04" height="8.92" transform="translate(-0.01 0.01) rotate(-0.1)"/><rect class="cls-137" x="6.44" y="0.33" width="0.04" height="8.92" transform="translate(-0.01 0.01) rotate(-0.1)"/><rect class="cls-138" x="6.48" y="0.33" width="0.04" height="8.92" transform="translate(-0.01 0.01) rotate(-0.1)"/><rect class="cls-139" x="6.52" y="0.33" width="0.04" height="8.92" transform="translate(-0.01 0.01) rotate(-0.1)"/><rect class="cls-140" x="6.56" y="0.33" width="0.04" height="8.92" transform="translate(-0.01 0.01) rotate(-0.1)"/><rect class="cls-141" x="6.61" y="0.33" width="0.04" height="8.92" transform="translate(-0.01 0.01) rotate(-0.1)"/><rect class="cls-142" x="6.65" y="0.33" width="0.04" height="8.92" transform="translate(-0.01 0.01) rotate(-0.1)"/><rect class="cls-143" x="6.69" y="0.33" width="0.04" height="8.92" transform="translate(-0.01 0.01) rotate(-0.1)"/><rect class="cls-144" x="6.73" y="0.33" width="0.04" height="8.92" transform="translate(-0.01 0.01) rotate(-0.1)"/><rect class="cls-145" x="6.77" y="0.33" width="0.04" height="8.92" transform="translate(-0.01 0.01) rotate(-0.1)"/><rect class="cls-146" x="6.82" y="0.33" width="0.04" height="8.92" transform="translate(-0.01 0.01) rotate(-0.1)"/><rect class="cls-147" x="6.86" y="0.33" width="0.04" height="8.92" transform="translate(-0.01 0.01) rotate(-0.1)"/><rect class="cls-148" x="6.9" y="0.33" width="0.04" height="8.92" transform="translate(-0.01 0.01) rotate(-0.1)"/><rect class="cls-149" x="6.94" y="0.33" width="0.04" height="8.92" transform="translate(-0.01 0.01) rotate(-0.1)"/><rect class="cls-150" x="6.99" y="0.33" width="0.04" height="8.92" transform="translate(-0.01 0.01) rotate(-0.1)"/><rect class="cls-151" x="7.03" y="0.33" width="0.04" height="8.92" transform="translate(-0.01 0.01) rotate(-0.1)"/><rect class="cls-152" x="7.07" y="0.33" width="0.04" height="8.92" transform="translate(-0.01 0.01) rotate(-0.1)"/><rect class="cls-153" x="7.11" y="0.33" width="0.04" height="8.92" transform="translate(-0.01 0.01) rotate(-0.1)"/><rect class="cls-154" x="7.15" y="0.33" width="0.04" height="8.92" transform="translate(-0.01 0.01) rotate(-0.1)"/><rect class="cls-155" x="7.2" y="0.33" width="0.04" height="8.92" transform="translate(-0.01 0.01) rotate(-0.1)"/><rect class="cls-156" x="7.24" y="0.33" width="0.04" height="8.92" transform="translate(-0.01 0.01) rotate(-0.1)"/><rect class="cls-157" x="7.28" y="0.33" width="0.04" height="8.92" transform="translate(-0.01 0.01) rotate(-0.1)"/><rect class="cls-158" x="7.32" y="0.33" width="0.04" height="8.92" transform="translate(-0.01 0.01) rotate(-0.1)"/><rect class="cls-159" x="7.37" y="0.33" width="0.04" height="8.92" transform="translate(-0.01 0.01) rotate(-0.1)"/><rect class="cls-160" x="7.41" y="0.33" width="0.04" height="8.92" transform="translate(-0.01 0.01) rotate(-0.1)"/><rect class="cls-161" x="7.45" y="0.33" width="0.04" height="8.92" transform="translate(-0.01 0.01) rotate(-0.1)"/><rect class="cls-162" x="7.49" y="0.33" width="0.04" height="8.92" transform="translate(-0.01 0.01) rotate(-0.1)"/><rect class="cls-163" x="7.53" y="0.33" width="0.04" height="8.92" transform="translate(-0.01 0.01) rotate(-0.1)"/><rect class="cls-164" x="7.58" y="0.33" width="0.04" height="8.92" transform="translate(-0.01 0.01) rotate(-0.1)"/><rect class="cls-165" x="7.62" y="0.33" width="0.04" height="8.92" transform="translate(-0.01 0.01) rotate(-0.1)"/><rect class="cls-166" x="7.66" y="0.33" width="0.04" height="8.92" transform="translate(-0.01 0.01) rotate(-0.1)"/><rect class="cls-167" x="7.7" y="0.33" width="0.04" height="8.92" transform="translate(-0.01 0.01) rotate(-0.1)"/><rect class="cls-168" x="7.75" y="0.33" width="0.04" height="8.92" transform="translate(-0.01 0.01) rotate(-0.1)"/><rect class="cls-169" x="7.79" y="0.33" width="0.04" height="8.92" transform="translate(-0.01 0.01) rotate(-0.1)"/><rect class="cls-170" x="7.83" y="0.33" width="0.04" height="8.92" transform="translate(-0.01 0.01) rotate(-0.1)"/><rect class="cls-171" x="7.87" y="0.33" width="0.04" height="8.92" transform="translate(-0.01 0.01) rotate(-0.1)"/><rect class="cls-172" x="7.91" y="0.33" width="0.04" height="8.92" transform="translate(-0.01 0.01) rotate(-0.1)"/><rect class="cls-173" x="7.96" y="0.33" width="0.04" height="8.92" transform="translate(-0.01 0.01) rotate(-0.1)"/><rect class="cls-174" x="8" y="0.33" width="0.04" height="8.92" transform="translate(-0.01 0.01) rotate(-0.1)"/><rect class="cls-175" x="8.04" y="0.33" width="0.04" height="8.92" transform="translate(-0.01 0.01) rotate(-0.1)"/><rect class="cls-176" x="8.08" y="0.33" width="0.04" height="8.92" transform="translate(-0.01 0.01) rotate(-0.1)"/><rect class="cls-177" x="8.13" y="0.33" width="0.04" height="8.92" transform="translate(-0.01 0.01) rotate(-0.1)"/><rect class="cls-178" x="8.17" y="0.33" width="0.04" height="8.92" transform="translate(-0.01 0.01) rotate(-0.1)"/><rect class="cls-179" x="8.21" y="0.33" width="0.04" height="8.92" transform="translate(-0.01 0.01) rotate(-0.1)"/><rect class="cls-180" x="8.25" y="0.33" width="0.04" height="8.92" transform="translate(-0.01 0.01) rotate(-0.1)"/><rect class="cls-181" x="8.29" y="0.33" width="0.04" height="8.92" transform="translate(-0.01 0.01) rotate(-0.1)"/><rect class="cls-182" x="8.34" y="0.33" width="0.04" height="8.92" transform="translate(-0.01 0.01) rotate(-0.1)"/><rect class="cls-183" x="8.38" y="0.33" width="0.04" height="8.92" transform="translate(-0.01 0.01) rotate(-0.1)"/><rect class="cls-184" x="8.42" y="0.33" width="0.04" height="8.92" transform="translate(-0.01 0.01) rotate(-0.1)"/><rect class="cls-185" x="8.46" y="0.33" width="0.04" height="8.92" transform="translate(-0.01 0.01) rotate(-0.1)"/><rect class="cls-186" x="8.51" y="0.33" width="0.04" height="8.92" transform="translate(-0.01 0.01) rotate(-0.1)"/><rect class="cls-187" x="8.55" y="0.33" width="0.04" height="8.92" transform="translate(-0.01 0.01) rotate(-0.1)"/><rect class="cls-188" x="8.59" y="0.33" width="0.04" height="8.92" transform="translate(-0.01 0.01) rotate(-0.1)"/><rect class="cls-189" x="8.63" y="0.33" width="0.04" height="8.92" transform="translate(-0.01 0.02) rotate(-0.1)"/><rect class="cls-190" x="8.67" y="0.33" width="0.04" height="8.92" transform="translate(-0.01 0.02) rotate(-0.1)"/><rect class="cls-191" x="8.72" y="0.33" width="0.04" height="8.92" transform="translate(-0.01 0.02) rotate(-0.1)"/><rect class="cls-192" x="8.76" y="0.33" width="0.04" height="8.92" transform="translate(-0.01 0.02) rotate(-0.1)"/><rect class="cls-193" x="8.8" y="0.33" width="0.04" height="8.92" transform="translate(-0.01 0.02) rotate(-0.1)"/><rect class="cls-194" x="8.84" y="0.33" width="0.04" height="8.92" transform="translate(-0.01 0.02) rotate(-0.1)"/><rect class="cls-195" x="8.89" y="0.33" width="0.04" height="8.92" transform="translate(-0.01 0.02) rotate(-0.1)"/><rect class="cls-196" x="8.93" y="0.33" width="0.04" height="8.92" transform="translate(-0.01 0.02) rotate(-0.1)"/><rect class="cls-197" x="8.97" y="0.33" width="0.04" height="8.92" transform="translate(-0.01 0.02) rotate(-0.1)"/><rect class="cls-198" x="9.01" y="0.33" width="0.04" height="8.92" transform="translate(-0.01 0.02) rotate(-0.1)"/><rect class="cls-199" x="9.05" y="0.33" width="0.04" height="8.92" transform="translate(-0.01 0.02) rotate(-0.1)"/><rect class="cls-200" x="9.1" y="0.33" width="0.04" height="8.92" transform="translate(-0.01 0.02) rotate(-0.1)"/><rect class="cls-201" x="9.14" y="0.33" width="0.04" height="8.92" transform="translate(-0.01 0.02) rotate(-0.1)"/><rect class="cls-202" x="9.18" y="0.33" width="0.04" height="8.92" transform="translate(-0.01 0.02) rotate(-0.1)"/><rect class="cls-203" x="9.22" y="0.33" width="0.04" height="8.92" transform="translate(-0.01 0.02) rotate(-0.1)"/><rect class="cls-204" x="9.27" y="0.33" width="0.04" height="8.92" transform="translate(-0.01 0.02) rotate(-0.1)"/><rect class="cls-205" x="9.31" y="0.33" width="0.04" height="8.92" transform="translate(-0.01 0.02) rotate(-0.1)"/><rect class="cls-206" x="9.35" y="0.33" width="0.04" height="8.92" transform="translate(-0.01 0.02) rotate(-0.1)"/><rect class="cls-207" x="9.39" y="0.33" width="0.04" height="8.92" transform="translate(-0.01 0.02) rotate(-0.1)"/><rect class="cls-208" x="9.43" y="0.33" width="0.04" height="8.92" transform="translate(-0.01 0.02) rotate(-0.1)"/><rect class="cls-209" x="9.48" y="0.33" width="0.04" height="8.92" transform="translate(-0.01 0.02) rotate(-0.1)"/><rect class="cls-210" x="9.52" y="0.33" width="0.04" height="8.92" transform="translate(-0.01 0.02) rotate(-0.1)"/><rect class="cls-211" x="9.56" y="0.33" width="0.04" height="8.92" transform="translate(-0.01 0.02) rotate(-0.1)"/><rect class="cls-212" x="9.6" y="0.33" width="0.04" height="8.92" transform="translate(-0.01 0.02) rotate(-0.1)"/><rect class="cls-213" x="9.65" y="0.33" width="0.04" height="8.92" transform="translate(-0.01 0.02) rotate(-0.1)"/><rect class="cls-214" x="9.69" y="0.33" width="0.04" height="8.92" transform="translate(-0.01 0.02) rotate(-0.1)"/><rect class="cls-215" x="9.73" y="0.33" width="0.04" height="8.92" transform="translate(-0.01 0.02) rotate(-0.1)"/><rect class="cls-216" x="9.77" y="0.33" width="0.04" height="8.92" transform="translate(-0.01 0.02) rotate(-0.1)"/><rect class="cls-217" x="9.81" y="0.33" width="0.04" height="8.92" transform="translate(-0.01 0.02) rotate(-0.1)"/><rect class="cls-218" x="9.86" y="0.33" width="0.04" height="8.92" transform="translate(-0.01 0.02) rotate(-0.1)"/><rect class="cls-219" x="9.9" y="0.33" width="0.04" height="8.92" transform="translate(-0.01 0.02) rotate(-0.1)"/><rect class="cls-220" x="9.94" y="0.33" width="0.04" height="8.92" transform="translate(-0.01 0.02) rotate(-0.1)"/><rect class="cls-221" x="9.98" y="0.33" width="0.04" height="8.92" transform="translate(-0.01 0.02) rotate(-0.1)"/><rect class="cls-222" x="10.03" y="0.33" width="0.04" height="8.92" transform="translate(-0.01 0.02) rotate(-0.1)"/><rect class="cls-223" x="10.07" y="0.33" width="0.04" height="8.92" transform="translate(-0.01 0.02) rotate(-0.1)"/><rect class="cls-224" x="10.11" y="0.33" width="0.04" height="8.92" transform="translate(-0.01 0.02) rotate(-0.1)"/><rect class="cls-225" x="10.15" y="0.33" width="0.04" height="8.92" transform="translate(-0.01 0.02) rotate(-0.1)"/><rect class="cls-226" x="10.19" y="0.33" width="0.04" height="8.92" transform="translate(-0.01 0.02) rotate(-0.1)"/><rect class="cls-227" x="10.24" y="0.33" width="0.04" height="8.92" transform="translate(-0.01 0.02) rotate(-0.1)"/><rect class="cls-228" x="10.28" y="0.33" width="0.04" height="8.92" transform="translate(-0.01 0.02) rotate(-0.1)"/><rect class="cls-229" x="10.32" y="0.33" width="0.04" height="8.92" transform="translate(-0.01 0.02) rotate(-0.1)"/><rect class="cls-230" x="10.36" y="0.33" width="0.04" height="8.92" transform="translate(-0.01 0.02) rotate(-0.1)"/><rect class="cls-231" x="10.41" y="0.33" width="0.04" height="8.92" transform="translate(-0.01 0.02) rotate(-0.1)"/><rect class="cls-232" x="10.45" y="0.33" width="0.04" height="8.92" transform="translate(-0.01 0.02) rotate(-0.1)"/><rect class="cls-233" x="10.49" y="0.33" width="0.04" height="8.92" transform="translate(-0.01 0.02) rotate(-0.1)"/><rect class="cls-234" x="10.53" y="0.33" width="0.04" height="8.92" transform="translate(-0.01 0.02) rotate(-0.1)"/><rect class="cls-235" x="10.57" y="0.33" width="0.04" height="8.92" transform="translate(-0.01 0.02) rotate(-0.1)"/><rect class="cls-235" x="10.62" y="0.33" width="0.83" height="8.92" transform="translate(-0.01 0.02) rotate(-0.1)"/></g><g class="cls-236"><rect class="cls-235" x="6.08" y="0.77" width="4.87" height="0.3" transform="translate(0 0.01) rotate(-0.1)"/><rect class="cls-235" x="6.08" y="1.07" width="4.87" height="0.02" transform="translate(0 0.01) rotate(-0.1)"/><rect class="cls-234" x="6.08" y="1.09" width="4.87" height="0.02" transform="translate(0 0.01) rotate(-0.1)"/><rect class="cls-233" x="6.08" y="1.1" width="4.87" height="0.02" transform="translate(0 0.01) rotate(-0.1)"/><rect class="cls-232" x="6.08" y="1.12" width="4.87" height="0.02" transform="translate(0 0.01) rotate(-0.1)"/><rect class="cls-231" x="6.08" y="1.13" width="4.87" height="0.02" transform="translate(0 0.01) rotate(-0.1)"/><rect class="cls-230" x="6.08" y="1.15" width="4.87" height="0.02" transform="translate(0 0.01) rotate(-0.1)"/><rect class="cls-229" x="6.08" y="1.16" width="4.87" height="0.02" transform="translate(0 0.01) rotate(-0.1)"/><rect class="cls-228" x="6.08" y="1.18" width="4.87" height="0.02" transform="translate(0 0.01) rotate(-0.1)"/><rect class="cls-227" x="6.08" y="1.19" width="4.87" height="0.02" transform="translate(0 0.01) rotate(-0.1)"/><rect class="cls-226" x="6.08" y="1.21" width="4.87" height="0.02" transform="translate(0 0.01) rotate(-0.1)"/><rect class="cls-225" x="6.08" y="1.22" width="4.87" height="0.02" transform="translate(0 0.01) rotate(-0.1)"/><rect class="cls-224" x="6.08" y="1.24" width="4.87" height="0.02" transform="translate(0 0.01) rotate(-0.1)"/><rect class="cls-223" x="6.08" y="1.25" width="4.87" height="0.02" transform="translate(0 0.01) rotate(-0.1)"/><rect class="cls-222" x="6.08" y="1.27" width="4.87" height="0.02" transform="translate(0 0.01) rotate(-0.1)"/><rect class="cls-221" x="6.08" y="1.28" width="4.87" height="0.02" transform="translate(0 0.01) rotate(-0.1)"/><rect class="cls-220" x="6.08" y="1.3" width="4.87" height="0.02" transform="translate(0 0.01) rotate(-0.1)"/><rect class="cls-219" x="6.08" y="1.31" width="4.87" height="0.02" transform="translate(0 0.01) rotate(-0.1)"/><rect class="cls-218" x="6.08" y="1.33" width="4.87" height="0.02" transform="translate(0 0.01) rotate(-0.1)"/><rect class="cls-217" x="6.08" y="1.34" width="4.87" height="0.02" transform="translate(0 0.01) rotate(-0.1)"/><rect class="cls-216" x="6.08" y="1.36" width="4.87" height="0.02" transform="translate(0 0.01) rotate(-0.1)"/><rect class="cls-215" x="6.08" y="1.38" width="4.87" height="0.02" transform="translate(0 0.01) rotate(-0.1)"/><rect class="cls-214" x="6.08" y="1.39" width="4.87" height="0.02" transform="translate(0 0.01) rotate(-0.1)"/><rect class="cls-213" x="6.08" y="1.41" width="4.87" height="0.02" transform="translate(0 0.01) rotate(-0.1)"/><rect class="cls-212" x="6.08" y="1.42" width="4.87" height="0.02" transform="translate(0 0.01) rotate(-0.1)"/><rect class="cls-211" x="6.08" y="1.44" width="4.87" height="0.02" transform="translate(0 0.01) rotate(-0.1)"/><rect class="cls-210" x="6.08" y="1.45" width="4.87" height="0.02" transform="translate(0 0.01) rotate(-0.1)"/><rect class="cls-209" x="6.08" y="1.47" width="4.87" height="0.02" transform="translate(0 0.01) rotate(-0.1)"/><rect class="cls-208" x="6.08" y="1.48" width="4.87" height="0.02" transform="translate(0 0.01) rotate(-0.1)"/><rect class="cls-207" x="6.08" y="1.5" width="4.87" height="0.02" transform="translate(0 0.01) rotate(-0.1)"/><rect class="cls-206" x="6.08" y="1.51" width="4.87" height="0.02" transform="translate(0 0.01) rotate(-0.1)"/><rect class="cls-205" x="6.08" y="1.53" width="4.87" height="0.02" transform="translate(0 0.01) rotate(-0.1)"/><rect class="cls-204" x="6.08" y="1.54" width="4.87" height="0.02" transform="translate(0 0.01) rotate(-0.1)"/><rect class="cls-203" x="6.08" y="1.56" width="4.87" height="0.02" transform="translate(0 0.01) rotate(-0.1)"/><rect class="cls-202" x="6.08" y="1.57" width="4.87" height="0.02" transform="translate(0 0.01) rotate(-0.1)"/><rect class="cls-201" x="6.08" y="1.59" width="4.87" height="0.02" transform="translate(0 0.01) rotate(-0.1)"/><rect class="cls-200" x="6.08" y="1.6" width="4.87" height="0.02" transform="translate(0 0.01) rotate(-0.1)"/><rect class="cls-199" x="6.08" y="1.62" width="4.87" height="0.02" transform="translate(0 0.01) rotate(-0.1)"/><rect class="cls-198" x="6.08" y="1.63" width="4.87" height="0.02" transform="translate(0 0.01) rotate(-0.1)"/><rect class="cls-197" x="6.08" y="1.65" width="4.87" height="0.02" transform="translate(0 0.01) rotate(-0.1)"/><rect class="cls-196" x="6.08" y="1.66" width="4.87" height="0.02" transform="translate(0 0.01) rotate(-0.1)"/><rect class="cls-195" x="6.08" y="1.68" width="4.87" height="0.02" transform="translate(0 0.01) rotate(-0.1)"/><rect class="cls-194" x="6.08" y="1.69" width="4.87" height="0.02" transform="translate(0 0.01) rotate(-0.1)"/><rect class="cls-193" x="6.08" y="1.71" width="4.87" height="0.02" transform="translate(0 0.01) rotate(-0.1)"/><rect class="cls-192" x="6.08" y="1.72" width="4.87" height="0.02" transform="translate(0 0.01) rotate(-0.1)"/><rect class="cls-191" x="6.08" y="1.74" width="4.87" height="0.02" transform="translate(0 0.01) rotate(-0.1)"/><rect class="cls-190" x="6.08" y="1.76" width="4.87" height="0.02" transform="translate(0 0.01) rotate(-0.1)"/><rect class="cls-189" x="6.08" y="1.77" width="4.87" height="0.02" transform="translate(0 0.01) rotate(-0.1)"/><rect class="cls-188" x="6.08" y="1.79" width="4.87" height="0.02" transform="translate(0 0.01) rotate(-0.1)"/><rect class="cls-187" x="6.08" y="1.8" width="4.87" height="0.02" transform="translate(0 0.01) rotate(-0.1)"/><rect class="cls-186" x="6.08" y="1.82" width="4.87" height="0.02" transform="translate(0 0.01) rotate(-0.1)"/><rect class="cls-185" x="6.08" y="1.83" width="4.87" height="0.02" transform="translate(0 0.01) rotate(-0.1)"/><rect class="cls-184" x="6.08" y="1.85" width="4.87" height="0.02" transform="translate(0 0.01) rotate(-0.1)"/><rect class="cls-183" x="6.08" y="1.86" width="4.87" height="0.02" transform="translate(0 0.01) rotate(-0.1)"/><rect class="cls-182" x="6.08" y="1.88" width="4.87" height="0.02" transform="translate(0 0.01) rotate(-0.1)"/><rect class="cls-181" x="6.08" y="1.89" width="4.87" height="0.02" transform="translate(0 0.01) rotate(-0.1)"/><rect class="cls-180" x="6.08" y="1.91" width="4.87" height="0.02" transform="translate(0 0.01) rotate(-0.1)"/><rect class="cls-179" x="6.08" y="1.92" width="4.87" height="0.02" transform="translate(0 0.01) rotate(-0.1)"/><rect class="cls-178" x="6.08" y="1.94" width="4.87" height="0.02" transform="translate(0 0.01) rotate(-0.1)"/><rect class="cls-177" x="6.08" y="1.95" width="4.87" height="0.02" transform="translate(0 0.01) rotate(-0.1)"/><rect class="cls-176" x="6.08" y="1.97" width="4.87" height="0.02" transform="translate(0 0.01) rotate(-0.1)"/><rect class="cls-175" x="6.08" y="1.98" width="4.87" height="0.02" transform="translate(0 0.01) rotate(-0.1)"/><rect class="cls-174" x="6.08" y="2" width="4.87" height="0.02" transform="translate(0 0.01) rotate(-0.1)"/><rect class="cls-173" x="6.08" y="2.01" width="4.87" height="0.02" transform="translate(0 0.01) rotate(-0.1)"/><rect class="cls-172" x="6.08" y="2.03" width="4.87" height="0.02" transform="translate(0 0.01) rotate(-0.1)"/><rect class="cls-171" x="6.08" y="2.04" width="4.87" height="0.02" transform="translate(0 0.01) rotate(-0.1)"/><rect class="cls-170" x="6.08" y="2.06" width="4.87" height="0.02" transform="translate(0 0.01) rotate(-0.1)"/><rect class="cls-169" x="6.08" y="2.07" width="4.87" height="0.02" transform="translate(0 0.01) rotate(-0.1)"/><rect class="cls-168" x="6.08" y="2.09" width="4.87" height="0.02" transform="translate(0 0.01) rotate(-0.1)"/><rect class="cls-167" x="6.08" y="2.11" width="4.87" height="0.02" transform="translate(0 0.01) rotate(-0.1)"/><rect class="cls-166" x="6.08" y="2.12" width="4.87" height="0.02" transform="translate(0 0.01) rotate(-0.1)"/><rect class="cls-165" x="6.08" y="2.14" width="4.87" height="0.02" transform="translate(0 0.01) rotate(-0.1)"/><rect class="cls-164" x="6.08" y="2.15" width="4.87" height="0.02" transform="translate(0 0.01) rotate(-0.1)"/><rect class="cls-163" x="6.08" y="2.17" width="4.87" height="0.02" transform="translate(0 0.01) rotate(-0.1)"/><rect class="cls-162" x="6.08" y="2.18" width="4.87" height="0.02" transform="translate(0 0.01) rotate(-0.1)"/><rect class="cls-161" x="6.08" y="2.2" width="4.87" height="0.02" transform="translate(0 0.01) rotate(-0.1)"/><rect class="cls-160" x="6.08" y="2.21" width="4.87" height="0.02" transform="translate(0 0.01) rotate(-0.1)"/><rect class="cls-159" x="6.08" y="2.23" width="4.87" height="0.02" transform="translate(0 0.01) rotate(-0.1)"/><rect class="cls-158" x="6.08" y="2.24" width="4.87" height="0.02" transform="translate(0 0.01) rotate(-0.1)"/><rect class="cls-157" x="6.08" y="2.26" width="4.87" height="0.02" transform="translate(0 0.01) rotate(-0.1)"/><rect class="cls-156" x="6.08" y="2.27" width="4.87" height="0.02" transform="translate(0 0.01) rotate(-0.1)"/><rect class="cls-155" x="6.08" y="2.29" width="4.87" height="0.02" transform="translate(0 0.01) rotate(-0.1)"/><rect class="cls-154" x="6.08" y="2.3" width="4.87" height="0.02" transform="translate(0 0.01) rotate(-0.1)"/><rect class="cls-153" x="6.08" y="2.32" width="4.87" height="0.02" transform="translate(0 0.01) rotate(-0.1)"/><rect class="cls-152" x="6.08" y="2.33" width="4.87" height="0.02" transform="translate(0 0.01) rotate(-0.1)"/><rect class="cls-151" x="6.08" y="2.35" width="4.87" height="0.02" transform="translate(0 0.01) rotate(-0.1)"/><rect class="cls-150" x="6.08" y="2.36" width="4.87" height="0.02" transform="translate(0 0.01) rotate(-0.1)"/><rect class="cls-149" x="6.08" y="2.38" width="4.87" height="0.02" transform="translate(0 0.01) rotate(-0.1)"/><rect class="cls-148" x="6.08" y="2.39" width="4.87" height="0.02" transform="translate(0 0.01) rotate(-0.1)"/><rect class="cls-147" x="6.08" y="2.41" width="4.87" height="0.02" transform="translate(0 0.01) rotate(-0.1)"/><rect class="cls-146" x="6.08" y="2.42" width="4.87" height="0.02" transform="translate(0 0.01) rotate(-0.1)"/><rect class="cls-145" x="6.08" y="2.44" width="4.87" height="0.02" transform="translate(0 0.01) rotate(-0.1)"/><rect class="cls-144" x="6.08" y="2.46" width="4.87" height="0.02" transform="translate(0 0.01) rotate(-0.1)"/><rect class="cls-143" x="6.08" y="2.47" width="4.87" height="0.02" transform="translate(0 0.01) rotate(-0.1)"/><rect class="cls-142" x="6.08" y="2.49" width="4.87" height="0.02" transform="translate(0 0.01) rotate(-0.1)"/><rect class="cls-141" x="6.08" y="2.5" width="4.87" height="0.02" transform="translate(0 0.01) rotate(-0.1)"/><rect class="cls-140" x="6.08" y="2.52" width="4.87" height="0.02" transform="translate(0 0.01) rotate(-0.1)"/><rect class="cls-139" x="6.08" y="2.53" width="4.87" height="0.02" transform="translate(0 0.01) rotate(-0.1)"/><rect class="cls-138" x="6.08" y="2.55" width="4.87" height="0.02" transform="translate(0 0.01) rotate(-0.1)"/><rect class="cls-137" x="6.08" y="2.56" width="4.87" height="0.02" transform="translate(0 0.01) rotate(-0.1)"/><rect class="cls-136" x="6.08" y="2.58" width="4.87" height="0.02" transform="translate(0 0.01) rotate(-0.1)"/><rect class="cls-135" x="6.08" y="2.59" width="4.87" height="0.02" transform="translate(0 0.01) rotate(-0.1)"/><rect class="cls-134" x="6.08" y="2.61" width="4.87" height="0.02" transform="translate(0 0.01) rotate(-0.1)"/><rect class="cls-133" x="6.08" y="2.62" width="4.87" height="0.02" transform="translate(0 0.01) rotate(-0.1)"/><rect class="cls-132" x="6.08" y="2.64" width="4.87" height="0.02" transform="translate(0 0.01) rotate(-0.1)"/><rect class="cls-131" x="6.08" y="2.65" width="4.87" height="0.02" transform="translate(0 0.01) rotate(-0.1)"/><rect class="cls-130" x="6.08" y="2.67" width="4.87" height="0.02" transform="translate(0 0.01) rotate(-0.1)"/><rect class="cls-129" x="6.08" y="2.68" width="4.87" height="0.02" transform="translate(0 0.01) rotate(-0.1)"/><rect class="cls-128" x="6.08" y="2.7" width="4.87" height="0.02" transform="translate(0 0.01) rotate(-0.1)"/><rect class="cls-127" x="6.08" y="2.71" width="4.87" height="0.02" transform="translate(0 0.01) rotate(-0.1)"/><rect class="cls-126" x="6.08" y="2.73" width="4.87" height="0.02" transform="translate(0 0.01) rotate(-0.1)"/><rect class="cls-125" x="6.08" y="2.74" width="4.87" height="0.02" transform="translate(0 0.01) rotate(-0.1)"/><rect class="cls-124" x="6.08" y="2.76" width="4.87" height="0.02" transform="translate(0 0.01) rotate(-0.1)"/><rect class="cls-123" x="6.08" y="2.77" width="4.87" height="0.02" transform="translate(0 0.01) rotate(-0.1)"/><rect class="cls-122" x="6.08" y="2.79" width="4.87" height="0.02" transform="translate(0 0.01) rotate(-0.1)"/><rect class="cls-121" x="6.08" y="2.81" width="4.87" height="0.02" transform="translate(0 0.01) rotate(-0.1)"/><rect class="cls-120" x="6.08" y="2.82" width="4.87" height="0.02" transform="translate(0 0.01) rotate(-0.1)"/><rect class="cls-120" x="6.08" y="2.84" width="4.87" height="0.02" transform="translate(0 0.01) rotate(-0.1)"/><rect class="cls-120" x="6.08" y="2.85" width="4.87" height="0.02" transform="translate(0 0.01) rotate(-0.1)"/><rect class="cls-119" x="6.08" y="2.87" width="4.87" height="0.02" transform="translate(0 0.01) rotate(-0.1)"/><rect class="cls-118" x="6.08" y="2.88" width="4.87" height="0.02" transform="translate(-0.01 0.01) rotate(-0.1)"/><rect class="cls-118" x="6.08" y="2.9" width="4.87" height="0.02" transform="translate(-0.01 0.01) rotate(-0.1)"/><rect class="cls-117" x="6.08" y="2.91" width="4.87" height="0.02" transform="translate(-0.01 0.01) rotate(-0.1)"/><rect class="cls-116" x="6.08" y="2.93" width="4.87" height="0.02" transform="translate(-0.01 0.01) rotate(-0.1)"/><rect class="cls-115" x="6.08" y="2.95" width="4.87" height="0.02" transform="translate(-0.01 0.01) rotate(-0.1)"/><rect class="cls-114" x="6.08" y="2.96" width="4.87" height="0.02" transform="translate(-0.01 0.01) rotate(-0.1)"/><rect class="cls-113" x="6.08" y="2.98" width="4.87" height="0.02" transform="translate(-0.01 0.01) rotate(-0.1)"/><rect class="cls-112" x="6.08" y="2.99" width="4.87" height="0.02" transform="translate(-0.01 0.01) rotate(-0.1)"/><rect class="cls-111" x="6.08" y="3.01" width="4.87" height="0.02" transform="translate(-0.01 0.01) rotate(-0.1)"/><rect class="cls-110" x="6.08" y="3.02" width="4.87" height="0.02" transform="translate(-0.01 0.01) rotate(-0.1)"/><rect class="cls-109" x="6.08" y="3.04" width="4.87" height="0.02" transform="translate(-0.01 0.01) rotate(-0.1)"/><rect class="cls-108" x="6.08" y="3.06" width="4.87" height="0.02" transform="translate(-0.01 0.01) rotate(-0.1)"/><rect class="cls-107" x="6.08" y="3.07" width="4.87" height="0.02" transform="translate(-0.01 0.01) rotate(-0.1)"/><rect class="cls-107" x="6.08" y="3.09" width="4.87" height="0.02" transform="translate(-0.01 0.01) rotate(-0.1)"/><rect class="cls-106" x="6.08" y="3.1" width="4.87" height="0.02" transform="translate(-0.01 0.01) rotate(-0.1)"/><rect class="cls-105" x="6.08" y="3.12" width="4.87" height="0.02" transform="translate(-0.01 0.01) rotate(-0.1)"/><rect class="cls-104" x="6.08" y="3.14" width="4.87" height="0.02" transform="translate(-0.01 0.01) rotate(-0.1)"/><rect class="cls-103" x="6.08" y="3.15" width="4.87" height="0.02" transform="translate(-0.01 0.01) rotate(-0.1)"/><rect class="cls-102" x="6.08" y="3.17" width="4.87" height="0.02" transform="translate(-0.01 0.01) rotate(-0.1)"/><rect class="cls-101" x="6.08" y="3.18" width="4.87" height="0.02" transform="translate(-0.01 0.01) rotate(-0.1)"/><rect class="cls-100" x="6.08" y="3.2" width="4.87" height="0.02" transform="translate(-0.01 0.01) rotate(-0.1)"/><rect class="cls-99" x="6.08" y="3.21" width="4.87" height="0.02" transform="translate(-0.01 0.01) rotate(-0.1)"/><rect class="cls-98" x="6.08" y="3.23" width="4.87" height="0.02" transform="translate(-0.01 0.01) rotate(-0.1)"/><rect class="cls-97" x="6.08" y="3.25" width="4.87" height="0.02" transform="translate(-0.01 0.01) rotate(-0.1)"/><rect class="cls-96" x="6.08" y="3.26" width="4.87" height="0.02" transform="translate(-0.01 0.01) rotate(-0.1)"/><rect class="cls-95" x="6.08" y="3.28" width="4.87" height="0.02" transform="translate(-0.01 0.01) rotate(-0.1)"/><rect class="cls-94" x="6.08" y="3.29" width="4.87" height="0.02" transform="translate(-0.01 0.01) rotate(-0.1)"/><rect class="cls-93" x="6.08" y="3.31" width="4.87" height="0.02" transform="translate(-0.01 0.01) rotate(-0.1)"/><rect class="cls-92" x="6.08" y="3.32" width="4.87" height="0.02" transform="translate(-0.01 0.01) rotate(-0.1)"/><rect class="cls-91" x="6.08" y="3.34" width="4.87" height="0.02" transform="translate(-0.01 0.01) rotate(-0.1)"/><rect class="cls-90" x="6.08" y="3.36" width="4.87" height="0.02" transform="translate(-0.01 0.01) rotate(-0.1)"/><rect class="cls-89" x="6.08" y="3.37" width="4.87" height="0.02" transform="translate(-0.01 0.01) rotate(-0.1)"/><rect class="cls-88" x="6.08" y="3.39" width="4.87" height="0.02" transform="translate(-0.01 0.01) rotate(-0.1)"/><rect class="cls-87" x="6.08" y="3.4" width="4.87" height="0.02" transform="translate(-0.01 0.01) rotate(-0.1)"/><rect class="cls-86" x="6.08" y="3.42" width="4.87" height="0.02" transform="translate(-0.01 0.01) rotate(-0.1)"/><rect class="cls-85" x="6.08" y="3.43" width="4.87" height="0.02" transform="translate(-0.01 0.01) rotate(-0.1)"/><rect class="cls-84" x="6.08" y="3.45" width="4.87" height="0.02" transform="translate(-0.01 0.01) rotate(-0.1)"/><rect class="cls-83" x="6.08" y="3.47" width="4.87" height="0.02" transform="translate(-0.01 0.01) rotate(-0.1)"/><rect class="cls-82" x="6.08" y="3.48" width="4.87" height="0.02" transform="translate(-0.01 0.01) rotate(-0.1)"/><rect class="cls-81" x="6.08" y="3.5" width="4.87" height="0.02" transform="translate(-0.01 0.01) rotate(-0.1)"/><rect class="cls-80" x="6.08" y="3.51" width="4.87" height="0.02" transform="translate(-0.01 0.01) rotate(-0.1)"/><rect class="cls-79" x="6.08" y="3.53" width="4.87" height="0.02" transform="translate(-0.01 0.01) rotate(-0.1)"/><rect class="cls-78" x="6.08" y="3.55" width="4.87" height="0.02" transform="translate(-0.01 0.01) rotate(-0.1)"/><rect class="cls-77" x="6.08" y="3.56" width="4.87" height="0.02" transform="translate(-0.01 0.01) rotate(-0.1)"/><rect class="cls-76" x="6.08" y="3.58" width="4.87" height="0.02" transform="translate(-0.01 0.01) rotate(-0.1)"/><rect class="cls-75" x="6.08" y="3.59" width="4.87" height="0.02" transform="translate(-0.01 0.01) rotate(-0.1)"/><rect class="cls-74" x="6.08" y="3.61" width="4.87" height="0.02" transform="translate(-0.01 0.01) rotate(-0.1)"/><rect class="cls-73" x="6.08" y="3.62" width="4.87" height="0.02" transform="translate(-0.01 0.01) rotate(-0.1)"/><rect class="cls-72" x="6.08" y="3.64" width="4.87" height="0.02" transform="translate(-0.01 0.01) rotate(-0.1)"/><rect class="cls-71" x="6.08" y="3.66" width="4.87" height="0.02" transform="translate(-0.01 0.01) rotate(-0.1)"/><rect class="cls-70" x="6.08" y="3.67" width="4.87" height="0.02" transform="translate(-0.01 0.01) rotate(-0.1)"/><rect class="cls-69" x="6.08" y="3.69" width="4.87" height="0.02" transform="translate(-0.01 0.01) rotate(-0.1)"/><rect class="cls-68" x="6.08" y="3.7" width="4.87" height="0.02" transform="translate(-0.01 0.01) rotate(-0.1)"/><rect class="cls-67" x="6.08" y="3.72" width="4.87" height="0.02" transform="translate(-0.01 0.01) rotate(-0.1)"/><rect class="cls-66" x="6.08" y="3.73" width="4.87" height="0.02" transform="translate(-0.01 0.01) rotate(-0.1)"/><rect class="cls-65" x="6.08" y="3.75" width="4.87" height="0.02" transform="translate(-0.01 0.01) rotate(-0.1)"/><rect class="cls-64" x="6.08" y="3.77" width="4.87" height="0.02" transform="translate(-0.01 0.01) rotate(-0.1)"/><rect class="cls-63" x="6.08" y="3.78" width="4.87" height="0.02" transform="translate(-0.01 0.01) rotate(-0.1)"/><rect class="cls-62" x="6.08" y="3.8" width="4.87" height="0.02" transform="translate(-0.01 0.01) rotate(-0.1)"/><rect class="cls-61" x="6.08" y="3.81" width="4.87" height="0.02" transform="translate(-0.01 0.01) rotate(-0.1)"/><rect class="cls-60" x="6.08" y="3.83" width="4.87" height="0.02" transform="translate(-0.01 0.01) rotate(-0.1)"/><rect class="cls-59" x="6.08" y="3.85" width="4.87" height="0.02" transform="translate(-0.01 0.01) rotate(-0.1)"/><rect class="cls-58" x="6.08" y="3.86" width="4.87" height="0.02" transform="translate(-0.01 0.01) rotate(-0.1)"/><rect class="cls-57" x="6.08" y="3.88" width="4.87" height="0.02" transform="translate(-0.01 0.01) rotate(-0.1)"/><rect class="cls-56" x="6.08" y="3.89" width="4.87" height="0.02" transform="translate(-0.01 0.01) rotate(-0.1)"/><rect class="cls-55" x="6.08" y="3.91" width="4.87" height="0.02" transform="translate(-0.01 0.01) rotate(-0.1)"/><rect class="cls-54" x="6.08" y="3.92" width="4.87" height="0.02" transform="translate(-0.01 0.01) rotate(-0.1)"/><rect class="cls-53" x="6.08" y="3.94" width="4.87" height="0.02" transform="translate(-0.01 0.01) rotate(-0.1)"/><rect class="cls-52" x="6.08" y="3.96" width="4.87" height="0.02" transform="translate(-0.01 0.01) rotate(-0.1)"/><rect class="cls-51" x="6.08" y="3.97" width="4.87" height="0.02" transform="translate(-0.01 0.01) rotate(-0.1)"/><rect class="cls-50" x="6.08" y="3.99" width="4.87" height="0.02" transform="translate(-0.01 0.01) rotate(-0.1)"/><rect class="cls-49" x="6.08" y="4" width="4.87" height="0.02" transform="translate(-0.01 0.01) rotate(-0.1)"/><rect class="cls-48" x="6.08" y="4.02" width="4.87" height="0.02" transform="translate(-0.01 0.01) rotate(-0.1)"/><rect class="cls-47" x="6.08" y="4.03" width="4.87" height="0.02" transform="translate(-0.01 0.01) rotate(-0.1)"/><rect class="cls-46" x="6.08" y="4.05" width="4.87" height="0.02" transform="translate(-0.01 0.01) rotate(-0.1)"/><rect class="cls-45" x="6.08" y="4.07" width="4.87" height="0.02" transform="translate(-0.01 0.01) rotate(-0.1)"/><rect class="cls-44" x="6.08" y="4.08" width="4.87" height="0.02" transform="translate(-0.01 0.01) rotate(-0.1)"/><rect class="cls-43" x="6.08" y="4.1" width="4.87" height="0.02" transform="translate(-0.01 0.01) rotate(-0.1)"/><rect class="cls-42" x="6.08" y="4.11" width="4.87" height="0.02" transform="translate(-0.01 0.01) rotate(-0.1)"/><rect class="cls-41" x="6.08" y="4.13" width="4.87" height="0.02" transform="translate(-0.01 0.01) rotate(-0.1)"/><rect class="cls-40" x="6.08" y="4.14" width="4.87" height="0.02" transform="translate(-0.01 0.01) rotate(-0.1)"/><rect class="cls-39" x="6.08" y="4.16" width="4.87" height="0.02" transform="translate(-0.01 0.01) rotate(-0.1)"/><rect class="cls-38" x="6.08" y="4.18" width="4.87" height="0.02" transform="translate(-0.01 0.01) rotate(-0.1)"/><rect class="cls-37" x="6.08" y="4.19" width="4.87" height="0.02" transform="translate(-0.01 0.01) rotate(-0.1)"/><rect class="cls-36" x="6.08" y="4.21" width="4.87" height="0.02" transform="translate(-0.01 0.01) rotate(-0.1)"/><rect class="cls-35" x="6.08" y="4.22" width="4.87" height="0.02" transform="translate(-0.01 0.01) rotate(-0.1)"/><rect class="cls-34" x="6.08" y="4.24" width="4.87" height="0.02" transform="translate(-0.01 0.01) rotate(-0.1)"/><rect class="cls-33" x="6.08" y="4.26" width="4.87" height="0.02" transform="translate(-0.01 0.01) rotate(-0.1)"/><rect class="cls-32" x="6.08" y="4.27" width="4.87" height="0.02" transform="translate(-0.01 0.01) rotate(-0.1)"/><rect class="cls-31" x="6.08" y="4.29" width="4.87" height="0.02" transform="translate(-0.01 0.01) rotate(-0.1)"/><rect class="cls-30" x="6.08" y="4.3" width="4.87" height="0.02" transform="translate(-0.01 0.01) rotate(-0.1)"/><rect class="cls-29" x="6.08" y="4.32" width="4.87" height="0.02" transform="translate(-0.01 0.01) rotate(-0.1)"/><rect class="cls-28" x="6.08" y="4.33" width="4.87" height="0.02" transform="translate(-0.01 0.01) rotate(-0.1)"/><rect class="cls-27" x="6.08" y="4.35" width="4.87" height="0.02" transform="translate(-0.01 0.01) rotate(-0.1)"/><rect class="cls-26" x="6.08" y="4.37" width="4.87" height="0.02" transform="translate(-0.01 0.01) rotate(-0.1)"/><rect class="cls-25" x="6.08" y="4.38" width="4.87" height="0.02" transform="translate(-0.01 0.01) rotate(-0.1)"/><rect class="cls-24" x="6.08" y="4.4" width="4.87" height="0.02" transform="translate(-0.01 0.01) rotate(-0.1)"/><rect class="cls-23" x="6.08" y="4.41" width="4.87" height="0.02" transform="translate(-0.01 0.01) rotate(-0.1)"/><rect class="cls-22" x="6.08" y="4.43" width="4.87" height="0.02" transform="translate(-0.01 0.01) rotate(-0.1)"/><rect class="cls-21" x="6.08" y="4.44" width="4.87" height="0.02" transform="translate(-0.01 0.01) rotate(-0.1)"/><rect class="cls-20" x="6.08" y="4.46" width="4.87" height="0.02" transform="translate(-0.01 0.01) rotate(-0.1)"/><rect class="cls-19" x="6.08" y="4.48" width="4.87" height="0.02" transform="translate(-0.01 0.01) rotate(-0.1)"/><rect class="cls-18" x="6.08" y="4.49" width="4.87" height="0.02" transform="translate(-0.01 0.01) rotate(-0.1)"/><rect class="cls-17" x="6.08" y="4.51" width="4.87" height="0.02" transform="translate(-0.01 0.01) rotate(-0.1)"/><rect class="cls-16" x="6.08" y="4.52" width="4.87" height="0.02" transform="translate(-0.01 0.01) rotate(-0.1)"/><rect class="cls-15" x="6.08" y="4.54" width="4.87" height="0.02" transform="translate(-0.01 0.01) rotate(-0.1)"/><rect class="cls-14" x="6.08" y="4.56" width="4.87" height="0.02" transform="translate(-0.01 0.01) rotate(-0.1)"/><rect class="cls-13" x="6.08" y="4.57" width="4.87" height="0.02" transform="translate(-0.01 0.01) rotate(-0.1)"/><rect class="cls-12" x="6.08" y="4.59" width="4.87" height="0.02" transform="translate(-0.01 0.01) rotate(-0.1)"/><rect class="cls-11" x="6.08" y="4.6" width="4.87" height="0.02" transform="translate(-0.01 0.01) rotate(-0.1)"/><rect class="cls-10" x="6.08" y="4.62" width="4.87" height="0.02" transform="translate(-0.01 0.01) rotate(-0.1)"/><rect class="cls-9" x="6.08" y="4.63" width="4.87" height="0.02" transform="translate(-0.01 0.01) rotate(-0.1)"/><rect class="cls-8" x="6.08" y="4.65" width="4.87" height="0.02" transform="translate(-0.01 0.01) rotate(-0.1)"/><rect class="cls-7" x="6.08" y="4.67" width="4.87" height="0.02" transform="translate(-0.01 0.01) rotate(-0.1)"/><rect class="cls-6" x="6.08" y="4.68" width="4.87" height="0.02" transform="translate(-0.01 0.01) rotate(-0.1)"/><rect class="cls-5" x="6.08" y="4.7" width="4.87" height="0.02" transform="translate(-0.01 0.01) rotate(-0.1)"/><rect class="cls-4" x="6.08" y="4.71" width="4.87" height="0.02" transform="translate(-0.01 0.01) rotate(-0.1)"/><rect class="cls-3" x="6.08" y="4.73" width="4.87" height="0.02" transform="translate(-0.01 0.01) rotate(-0.1)"/><path class="cls-3" d="M6.08,4.75h0Z"/></g><g class="cls-237"><rect class="cls-235" x="1.28" y="8.52" width="4.87" height="0.3" transform="translate(-0.02 0.01) rotate(-0.1)"/><rect class="cls-235" x="1.28" y="8.51" width="4.87" height="0.02" transform="translate(-0.01 0.01) rotate(-0.1)"/><rect class="cls-234" x="1.28" y="8.49" width="4.87" height="0.02" transform="translate(-0.01 0.01) rotate(-0.1)"/><rect class="cls-233" x="1.28" y="8.48" width="4.87" height="0.02" transform="translate(-0.01 0.01) rotate(-0.1)"/><rect class="cls-232" x="1.28" y="8.46" width="4.87" height="0.02" transform="translate(-0.01 0.01) rotate(-0.1)"/><rect class="cls-231" x="1.28" y="8.45" width="4.87" height="0.02" transform="translate(-0.01 0.01) rotate(-0.1)"/><rect class="cls-230" x="1.28" y="8.43" width="4.87" height="0.02" transform="translate(-0.01 0.01) rotate(-0.1)"/><rect class="cls-229" x="1.28" y="8.42" width="4.87" height="0.02" transform="translate(-0.01 0.01) rotate(-0.1)"/><rect class="cls-228" x="1.28" y="8.4" width="4.87" height="0.02" transform="translate(-0.01 0.01) rotate(-0.1)"/><rect class="cls-227" x="1.28" y="8.39" width="4.87" height="0.02" transform="translate(-0.01 0.01) rotate(-0.1)"/><rect class="cls-226" x="1.28" y="8.37" width="4.87" height="0.02" transform="translate(-0.01 0.01) rotate(-0.1)"/><rect class="cls-225" x="1.28" y="8.36" width="4.87" height="0.02" transform="translate(-0.01 0.01) rotate(-0.1)"/><rect class="cls-224" x="1.28" y="8.34" width="4.87" height="0.02" transform="translate(-0.01 0.01) rotate(-0.1)"/><rect class="cls-223" x="1.28" y="8.33" width="4.87" height="0.02" transform="translate(-0.01 0.01) rotate(-0.1)"/><rect class="cls-222" x="1.28" y="8.31" width="4.87" height="0.02" transform="translate(-0.01 0.01) rotate(-0.1)"/><rect class="cls-221" x="1.28" y="8.3" width="4.87" height="0.02" transform="translate(-0.01 0.01) rotate(-0.1)"/><rect class="cls-220" x="1.28" y="8.28" width="4.87" height="0.02" transform="translate(-0.01 0.01) rotate(-0.1)"/><rect class="cls-219" x="1.28" y="8.27" width="4.87" height="0.02" transform="translate(-0.01 0.01) rotate(-0.1)"/><rect class="cls-218" x="1.28" y="8.25" width="4.87" height="0.02" transform="translate(-0.01 0.01) rotate(-0.1)"/><rect class="cls-217" x="1.28" y="8.23" width="4.87" height="0.02" transform="translate(-0.01 0.01) rotate(-0.1)"/><rect class="cls-216" x="1.28" y="8.22" width="4.87" height="0.02" transform="translate(-0.01 0.01) rotate(-0.1)"/><rect class="cls-215" x="1.28" y="8.2" width="4.87" height="0.02" transform="translate(-0.01 0.01) rotate(-0.1)"/><rect class="cls-214" x="1.28" y="8.19" width="4.87" height="0.02" transform="translate(-0.01 0.01) rotate(-0.1)"/><rect class="cls-213" x="1.28" y="8.17" width="4.87" height="0.02" transform="translate(-0.01 0.01) rotate(-0.1)"/><rect class="cls-212" x="1.28" y="8.16" width="4.87" height="0.02" transform="translate(-0.01 0.01) rotate(-0.1)"/><rect class="cls-211" x="1.28" y="8.14" width="4.87" height="0.02" transform="translate(-0.01 0.01) rotate(-0.1)"/><rect class="cls-210" x="1.28" y="8.13" width="4.87" height="0.02" transform="translate(-0.01 0.01) rotate(-0.1)"/><rect class="cls-209" x="1.28" y="8.11" width="4.87" height="0.02" transform="translate(-0.01 0.01) rotate(-0.1)"/><rect class="cls-208" x="1.28" y="8.1" width="4.87" height="0.02" transform="translate(-0.01 0.01) rotate(-0.1)"/><rect class="cls-207" x="1.28" y="8.08" width="4.87" height="0.02" transform="translate(-0.01 0.01) rotate(-0.1)"/><rect class="cls-206" x="1.28" y="8.07" width="4.87" height="0.02" transform="translate(-0.01 0.01) rotate(-0.1)"/><rect class="cls-205" x="1.28" y="8.05" width="4.87" height="0.02" transform="translate(-0.01 0.01) rotate(-0.1)"/><rect class="cls-204" x="1.28" y="8.04" width="4.87" height="0.02" transform="translate(-0.01 0.01) rotate(-0.1)"/><rect class="cls-203" x="1.28" y="8.02" width="4.87" height="0.02" transform="translate(-0.01 0.01) rotate(-0.1)"/><rect class="cls-202" x="1.28" y="8.01" width="4.87" height="0.02" transform="translate(-0.01 0.01) rotate(-0.1)"/><rect class="cls-201" x="1.28" y="7.99" width="4.87" height="0.02" transform="translate(-0.01 0.01) rotate(-0.1)"/><rect class="cls-200" x="1.28" y="7.98" width="4.87" height="0.02" transform="translate(-0.01 0.01) rotate(-0.1)"/><rect class="cls-199" x="1.28" y="7.96" width="4.87" height="0.02" transform="translate(-0.01 0.01) rotate(-0.1)"/><rect class="cls-198" x="1.28" y="7.95" width="4.87" height="0.02" transform="translate(-0.01 0.01) rotate(-0.1)"/><rect class="cls-197" x="1.28" y="7.93" width="4.87" height="0.02" transform="translate(-0.01 0.01) rotate(-0.1)"/><rect class="cls-196" x="1.28" y="7.92" width="4.87" height="0.02" transform="translate(-0.01 0.01) rotate(-0.1)"/><rect class="cls-195" x="1.28" y="7.9" width="4.87" height="0.02" transform="translate(-0.01 0.01) rotate(-0.1)"/><rect class="cls-194" x="1.28" y="7.89" width="4.87" height="0.02" transform="translate(-0.01 0.01) rotate(-0.1)"/><rect class="cls-193" x="1.28" y="7.87" width="4.87" height="0.02" transform="translate(-0.01 0.01) rotate(-0.1)"/><rect class="cls-192" x="1.28" y="7.85" width="4.87" height="0.02" transform="translate(-0.01 0.01) rotate(-0.1)"/><rect class="cls-191" x="1.28" y="7.84" width="4.87" height="0.02" transform="translate(-0.01 0.01) rotate(-0.1)"/><rect class="cls-190" x="1.28" y="7.82" width="4.87" height="0.02" transform="translate(-0.01 0.01) rotate(-0.1)"/><rect class="cls-189" x="1.28" y="7.81" width="4.87" height="0.02" transform="translate(-0.01 0.01) rotate(-0.1)"/><rect class="cls-188" x="1.28" y="7.79" width="4.87" height="0.02" transform="translate(-0.01 0.01) rotate(-0.1)"/><rect class="cls-187" x="1.28" y="7.78" width="4.87" height="0.02" transform="translate(-0.01 0.01) rotate(-0.1)"/><rect class="cls-186" x="1.28" y="7.76" width="4.87" height="0.02" transform="translate(-0.01 0.01) rotate(-0.1)"/><rect class="cls-185" x="1.28" y="7.75" width="4.87" height="0.02" transform="translate(-0.01 0.01) rotate(-0.1)"/><rect class="cls-184" x="1.28" y="7.73" width="4.87" height="0.02" transform="translate(-0.01 0.01) rotate(-0.1)"/><rect class="cls-183" x="1.28" y="7.72" width="4.87" height="0.02" transform="translate(-0.01 0.01) rotate(-0.1)"/><rect class="cls-182" x="1.28" y="7.7" width="4.87" height="0.02" transform="translate(-0.01 0.01) rotate(-0.1)"/><rect class="cls-181" x="1.28" y="7.69" width="4.87" height="0.02" transform="translate(-0.01 0.01) rotate(-0.1)"/><rect class="cls-180" x="1.28" y="7.67" width="4.87" height="0.02" transform="translate(-0.01 0.01) rotate(-0.1)"/><rect class="cls-179" x="1.28" y="7.66" width="4.87" height="0.02" transform="translate(-0.01 0.01) rotate(-0.1)"/><rect class="cls-178" x="1.28" y="7.64" width="4.87" height="0.02" transform="translate(-0.01 0.01) rotate(-0.1)"/><rect class="cls-177" x="1.28" y="7.63" width="4.87" height="0.02" transform="translate(-0.01 0.01) rotate(-0.1)"/><rect class="cls-176" x="1.28" y="7.61" width="4.87" height="0.02" transform="translate(-0.01 0.01) rotate(-0.1)"/><rect class="cls-175" x="1.27" y="7.6" width="4.87" height="0.02" transform="translate(-0.01 0.01) rotate(-0.1)"/><rect class="cls-174" x="1.27" y="7.58" width="4.87" height="0.02" transform="translate(-0.01 0.01) rotate(-0.1)"/><rect class="cls-173" x="1.27" y="7.57" width="4.87" height="0.02" transform="translate(-0.01 0.01) rotate(-0.1)"/><rect class="cls-172" x="1.27" y="7.55" width="4.87" height="0.02" transform="translate(-0.01 0.01) rotate(-0.1)"/><rect class="cls-171" x="1.27" y="7.54" width="4.87" height="0.02" transform="translate(-0.01 0.01) rotate(-0.1)"/><rect class="cls-170" x="1.27" y="7.52" width="4.87" height="0.02" transform="translate(-0.01 0.01) rotate(-0.1)"/><rect class="cls-169" x="1.27" y="7.5" width="4.87" height="0.02" transform="translate(-0.01 0.01) rotate(-0.1)"/><rect class="cls-168" x="1.27" y="7.49" width="4.87" height="0.02" transform="translate(-0.01 0.01) rotate(-0.1)"/><rect class="cls-167" x="1.27" y="7.47" width="4.87" height="0.02" transform="translate(-0.01 0.01) rotate(-0.1)"/><rect class="cls-166" x="1.27" y="7.46" width="4.87" height="0.02" transform="translate(-0.01 0.01) rotate(-0.1)"/><rect class="cls-165" x="1.27" y="7.44" width="4.87" height="0.02" transform="translate(-0.01 0.01) rotate(-0.1)"/><rect class="cls-164" x="1.27" y="7.43" width="4.87" height="0.02" transform="translate(-0.01 0.01) rotate(-0.1)"/><rect class="cls-163" x="1.27" y="7.41" width="4.87" height="0.02" transform="translate(-0.01 0.01) rotate(-0.1)"/><rect class="cls-162" x="1.27" y="7.4" width="4.87" height="0.02" transform="translate(-0.01 0.01) rotate(-0.1)"/><rect class="cls-161" x="1.27" y="7.38" width="4.87" height="0.02" transform="translate(-0.01 0.01) rotate(-0.1)"/><rect class="cls-160" x="1.27" y="7.37" width="4.87" height="0.02" transform="translate(-0.01 0.01) rotate(-0.1)"/><rect class="cls-159" x="1.27" y="7.35" width="4.87" height="0.02" transform="translate(-0.01 0.01) rotate(-0.1)"/><rect class="cls-158" x="1.27" y="7.34" width="4.87" height="0.02" transform="translate(-0.01 0.01) rotate(-0.1)"/><rect class="cls-157" x="1.27" y="7.32" width="4.87" height="0.02" transform="translate(-0.01 0.01) rotate(-0.1)"/><rect class="cls-156" x="1.27" y="7.31" width="4.87" height="0.02" transform="translate(-0.01 0.01) rotate(-0.1)"/><rect class="cls-155" x="1.27" y="7.29" width="4.87" height="0.02" transform="translate(-0.01 0.01) rotate(-0.1)"/><rect class="cls-154" x="1.27" y="7.28" width="4.87" height="0.02" transform="translate(-0.01 0.01) rotate(-0.1)"/><rect class="cls-153" x="1.27" y="7.26" width="4.87" height="0.02" transform="translate(-0.01 0.01) rotate(-0.1)"/><rect class="cls-152" x="1.27" y="7.25" width="4.87" height="0.02" transform="translate(-0.01 0.01) rotate(-0.1)"/><rect class="cls-151" x="1.27" y="7.23" width="4.87" height="0.02" transform="translate(-0.01 0.01) rotate(-0.1)"/><rect class="cls-150" x="1.27" y="7.22" width="4.87" height="0.02" transform="translate(-0.01 0.01) rotate(-0.1)"/><rect class="cls-149" x="1.27" y="7.2" width="4.87" height="0.02" transform="translate(-0.01 0.01) rotate(-0.1)"/><rect class="cls-148" x="1.27" y="7.19" width="4.87" height="0.02" transform="translate(-0.01 0.01) rotate(-0.1)"/><rect class="cls-147" x="1.27" y="7.17" width="4.87" height="0.02" transform="translate(-0.01 0.01) rotate(-0.1)"/><rect class="cls-146" x="1.27" y="7.15" width="4.87" height="0.02" transform="translate(-0.01 0.01) rotate(-0.1)"/><rect class="cls-145" x="1.27" y="7.14" width="4.87" height="0.02" transform="translate(-0.01 0.01) rotate(-0.1)"/><rect class="cls-144" x="1.27" y="7.12" width="4.87" height="0.02" transform="translate(-0.01 0.01) rotate(-0.1)"/><rect class="cls-143" x="1.27" y="7.11" width="4.87" height="0.02" transform="translate(-0.01 0.01) rotate(-0.1)"/><rect class="cls-142" x="1.27" y="7.09" width="4.87" height="0.02" transform="translate(-0.01 0.01) rotate(-0.1)"/><rect class="cls-141" x="1.27" y="7.08" width="4.87" height="0.02" transform="translate(-0.01 0.01) rotate(-0.1)"/><rect class="cls-140" x="1.27" y="7.06" width="4.87" height="0.02" transform="translate(-0.01 0.01) rotate(-0.1)"/><rect class="cls-139" x="1.27" y="7.05" width="4.87" height="0.02" transform="translate(-0.01 0.01) rotate(-0.1)"/><rect class="cls-138" x="1.27" y="7.03" width="4.87" height="0.02" transform="translate(-0.01 0.01) rotate(-0.1)"/><rect class="cls-137" x="1.27" y="7.02" width="4.87" height="0.02" transform="translate(-0.01 0.01) rotate(-0.1)"/><rect class="cls-136" x="1.27" y="7" width="4.87" height="0.02" transform="translate(-0.01 0.01) rotate(-0.1)"/><rect class="cls-135" x="1.27" y="6.99" width="4.87" height="0.02" transform="translate(-0.01 0.01) rotate(-0.1)"/><rect class="cls-134" x="1.27" y="6.97" width="4.87" height="0.02" transform="translate(-0.01 0.01) rotate(-0.1)"/><rect class="cls-133" x="1.27" y="6.96" width="4.87" height="0.02" transform="translate(-0.01 0.01) rotate(-0.1)"/><rect class="cls-132" x="1.27" y="6.94" width="4.87" height="0.02" transform="translate(-0.01 0.01) rotate(-0.1)"/><rect class="cls-131" x="1.27" y="6.93" width="4.87" height="0.02" transform="translate(-0.01 0.01) rotate(-0.1)"/><rect class="cls-130" x="1.27" y="6.91" width="4.87" height="0.02" transform="translate(-0.01 0.01) rotate(-0.1)"/><rect class="cls-129" x="1.27" y="6.9" width="4.87" height="0.02" transform="translate(-0.01 0.01) rotate(-0.1)"/><rect class="cls-128" x="1.27" y="6.88" width="4.87" height="0.02" transform="translate(-0.01 0.01) rotate(-0.1)"/><rect class="cls-127" x="1.27" y="6.87" width="4.87" height="0.02" transform="translate(-0.01 0.01) rotate(-0.1)"/><rect class="cls-126" x="1.27" y="6.85" width="4.87" height="0.02" transform="translate(-0.01 0.01) rotate(-0.1)"/><rect class="cls-125" x="1.27" y="6.84" width="4.87" height="0.02" transform="translate(-0.01 0.01) rotate(-0.1)"/><rect class="cls-124" x="1.27" y="6.82" width="4.87" height="0.02" transform="translate(-0.01 0.01) rotate(-0.1)"/><rect class="cls-123" x="1.27" y="6.8" width="4.87" height="0.02" transform="translate(-0.01 0.01) rotate(-0.1)"/><rect class="cls-122" x="1.27" y="6.79" width="4.87" height="0.02" transform="translate(-0.01 0.01) rotate(-0.1)"/><rect class="cls-121" x="1.27" y="6.77" width="4.87" height="0.02" transform="translate(-0.01 0.01) rotate(-0.1)"/><rect class="cls-120" x="1.27" y="6.76" width="4.87" height="0.02" transform="translate(-0.01 0.01) rotate(-0.1)"/><rect class="cls-120" x="1.27" y="6.74" width="4.87" height="0.02" transform="translate(-0.01 0.01) rotate(-0.1)"/><rect class="cls-120" x="1.27" y="6.73" width="4.87" height="0.02" transform="translate(-0.01 0.01) rotate(-0.1)"/><rect class="cls-119" x="1.27" y="6.71" width="4.87" height="0.02" transform="translate(-0.01 0.01) rotate(-0.1)"/><rect class="cls-118" x="1.27" y="6.7" width="4.87" height="0.02" transform="translate(-0.01 0.01) rotate(-0.1)"/><rect class="cls-118" x="1.27" y="6.68" width="4.87" height="0.02" transform="translate(-0.01 0.01) rotate(-0.1)"/><rect class="cls-117" x="1.27" y="6.66" width="4.87" height="0.02" transform="translate(-0.01 0.01) rotate(-0.1)"/><rect class="cls-116" x="1.27" y="6.65" width="4.87" height="0.02" transform="translate(-0.01 0.01) rotate(-0.1)"/><rect class="cls-115" x="1.27" y="6.63" width="4.87" height="0.02" transform="translate(-0.01 0.01) rotate(-0.1)"/><rect class="cls-114" x="1.27" y="6.62" width="4.87" height="0.02" transform="translate(-0.01 0.01) rotate(-0.1)"/><rect class="cls-113" x="1.27" y="6.6" width="4.87" height="0.02" transform="translate(-0.01 0.01) rotate(-0.1)"/><rect class="cls-112" x="1.27" y="6.59" width="4.87" height="0.02" transform="translate(-0.01 0.01) rotate(-0.1)"/><rect class="cls-111" x="1.27" y="6.57" width="4.87" height="0.02" transform="translate(-0.01 0.01) rotate(-0.1)"/><rect class="cls-110" x="1.27" y="6.55" width="4.87" height="0.02" transform="translate(-0.01 0.01) rotate(-0.1)"/><rect class="cls-109" x="1.27" y="6.54" width="4.87" height="0.02" transform="translate(-0.01 0.01) rotate(-0.1)"/><rect class="cls-108" x="1.27" y="6.52" width="4.87" height="0.02" transform="translate(-0.01 0.01) rotate(-0.1)"/><rect class="cls-107" x="1.27" y="6.51" width="4.87" height="0.02" transform="translate(-0.01 0.01) rotate(-0.1)"/><rect class="cls-107" x="1.27" y="6.49" width="4.87" height="0.02" transform="translate(-0.01 0.01) rotate(-0.1)"/><rect class="cls-106" x="1.27" y="6.48" width="4.87" height="0.02" transform="translate(-0.01 0.01) rotate(-0.1)"/><rect class="cls-105" x="1.27" y="6.46" width="4.87" height="0.02" transform="translate(-0.01 0.01) rotate(-0.1)"/><rect class="cls-104" x="1.27" y="6.44" width="4.87" height="0.02" transform="translate(-0.01 0.01) rotate(-0.1)"/><rect class="cls-103" x="1.27" y="6.43" width="4.87" height="0.02" transform="translate(-0.01 0.01) rotate(-0.1)"/><rect class="cls-102" x="1.27" y="6.41" width="4.87" height="0.02" transform="translate(-0.01 0.01) rotate(-0.1)"/><rect class="cls-101" x="1.27" y="6.4" width="4.87" height="0.02" transform="translate(-0.01 0.01) rotate(-0.1)"/><rect class="cls-100" x="1.27" y="6.38" width="4.87" height="0.02" transform="translate(-0.01 0.01) rotate(-0.1)"/><rect class="cls-99" x="1.27" y="6.36" width="4.87" height="0.02" transform="translate(-0.01 0.01) rotate(-0.1)"/><rect class="cls-98" x="1.27" y="6.35" width="4.87" height="0.02" transform="translate(-0.01 0.01) rotate(-0.1)"/><rect class="cls-97" x="1.27" y="6.33" width="4.87" height="0.02" transform="translate(-0.01 0.01) rotate(-0.1)"/><rect class="cls-96" x="1.27" y="6.32" width="4.87" height="0.02" transform="translate(-0.01 0.01) rotate(-0.1)"/><rect class="cls-95" x="1.27" y="6.3" width="4.87" height="0.02" transform="translate(-0.01 0.01) rotate(-0.1)"/><rect class="cls-94" x="1.27" y="6.29" width="4.87" height="0.02" transform="translate(-0.01 0.01) rotate(-0.1)"/><rect class="cls-93" x="1.27" y="6.27" width="4.87" height="0.02" transform="translate(-0.01 0.01) rotate(-0.1)"/><rect class="cls-92" x="1.27" y="6.25" width="4.87" height="0.02" transform="translate(-0.01 0.01) rotate(-0.1)"/><rect class="cls-91" x="1.27" y="6.24" width="4.87" height="0.02" transform="translate(-0.01 0.01) rotate(-0.1)"/><rect class="cls-90" x="1.27" y="6.22" width="4.87" height="0.02" transform="translate(-0.01 0.01) rotate(-0.1)"/><rect class="cls-89" x="1.27" y="6.21" width="4.87" height="0.02" transform="translate(-0.01 0.01) rotate(-0.1)"/><rect class="cls-88" x="1.27" y="6.19" width="4.87" height="0.02" transform="translate(-0.01 0.01) rotate(-0.1)"/><rect class="cls-87" x="1.27" y="6.18" width="4.87" height="0.02" transform="translate(-0.01 0.01) rotate(-0.1)"/><rect class="cls-86" x="1.27" y="6.16" width="4.87" height="0.02" transform="translate(-0.01 0.01) rotate(-0.1)"/><rect class="cls-85" x="1.27" y="6.14" width="4.87" height="0.02" transform="translate(-0.01 0.01) rotate(-0.1)"/><rect class="cls-84" x="1.27" y="6.13" width="4.87" height="0.02" transform="translate(-0.01 0.01) rotate(-0.1)"/><rect class="cls-83" x="1.27" y="6.11" width="4.87" height="0.02" transform="translate(-0.01 0.01) rotate(-0.1)"/><rect class="cls-82" x="1.27" y="6.1" width="4.87" height="0.02" transform="translate(-0.01 0.01) rotate(-0.1)"/><rect class="cls-81" x="1.27" y="6.08" width="4.87" height="0.02" transform="translate(-0.01 0.01) rotate(-0.1)"/><rect class="cls-80" x="1.27" y="6.07" width="4.87" height="0.02" transform="translate(-0.01 0.01) rotate(-0.1)"/><rect class="cls-79" x="1.27" y="6.05" width="4.87" height="0.02" transform="translate(-0.01 0.01) rotate(-0.1)"/><rect class="cls-78" x="1.27" y="6.03" width="4.87" height="0.02" transform="translate(-0.01 0.01) rotate(-0.1)"/><rect class="cls-77" x="1.27" y="6.02" width="4.87" height="0.02" transform="translate(-0.01 0.01) rotate(-0.1)"/><rect class="cls-76" x="1.27" y="6" width="4.87" height="0.02" transform="translate(-0.01 0.01) rotate(-0.1)"/><rect class="cls-75" x="1.27" y="5.99" width="4.87" height="0.02" transform="translate(-0.01 0.01) rotate(-0.1)"/><rect class="cls-74" x="1.27" y="5.97" width="4.87" height="0.02" transform="translate(-0.01 0.01) rotate(-0.1)"/><rect class="cls-73" x="1.27" y="5.95" width="4.87" height="0.02" transform="translate(-0.01 0.01) rotate(-0.1)"/><rect class="cls-72" x="1.27" y="5.94" width="4.87" height="0.02" transform="translate(-0.01 0.01) rotate(-0.1)"/><rect class="cls-71" x="1.27" y="5.92" width="4.87" height="0.02" transform="translate(-0.01 0.01) rotate(-0.1)"/><rect class="cls-70" x="1.27" y="5.91" width="4.87" height="0.02" transform="translate(-0.01 0.01) rotate(-0.1)"/><rect class="cls-69" x="1.27" y="5.89" width="4.87" height="0.02" transform="translate(-0.01 0.01) rotate(-0.1)"/><rect class="cls-68" x="1.27" y="5.88" width="4.87" height="0.02" transform="translate(-0.01 0.01) rotate(-0.1)"/><rect class="cls-67" x="1.27" y="5.86" width="4.87" height="0.02" transform="translate(-0.01 0.01) rotate(-0.1)"/><rect class="cls-66" x="1.27" y="5.84" width="4.87" height="0.02" transform="translate(-0.01 0.01) rotate(-0.1)"/><rect class="cls-65" x="1.27" y="5.83" width="4.87" height="0.02" transform="translate(-0.01 0.01) rotate(-0.1)"/><rect class="cls-64" x="1.27" y="5.81" width="4.87" height="0.02" transform="translate(-0.01 0.01) rotate(-0.1)"/><rect class="cls-63" x="1.27" y="5.8" width="4.87" height="0.02" transform="translate(-0.01 0.01) rotate(-0.1)"/><rect class="cls-62" x="1.27" y="5.78" width="4.87" height="0.02" transform="translate(-0.01 0.01) rotate(-0.1)"/><rect class="cls-61" x="1.27" y="5.77" width="4.87" height="0.02" transform="translate(-0.01 0.01) rotate(-0.1)"/><rect class="cls-60" x="1.27" y="5.75" width="4.87" height="0.02" transform="translate(-0.01 0.01) rotate(-0.1)"/><rect class="cls-59" x="1.27" y="5.73" width="4.87" height="0.02" transform="translate(-0.01 0.01) rotate(-0.1)"/><rect class="cls-58" x="1.27" y="5.72" width="4.87" height="0.02" transform="translate(-0.01 0.01) rotate(-0.1)"/><rect class="cls-57" x="1.27" y="5.7" width="4.87" height="0.02" transform="translate(-0.01 0.01) rotate(-0.1)"/><rect class="cls-56" x="1.27" y="5.69" width="4.87" height="0.02" transform="translate(-0.01 0.01) rotate(-0.1)"/><rect class="cls-55" x="1.27" y="5.67" width="4.87" height="0.02" transform="translate(-0.01 0.01) rotate(-0.1)"/><rect class="cls-54" x="1.27" y="5.65" width="4.87" height="0.02" transform="translate(-0.01 0.01) rotate(-0.1)"/><rect class="cls-53" x="1.27" y="5.64" width="4.87" height="0.02" transform="translate(-0.01 0.01) rotate(-0.1)"/><rect class="cls-52" x="1.27" y="5.62" width="4.87" height="0.02" transform="translate(-0.01 0.01) rotate(-0.1)"/><rect class="cls-51" x="1.27" y="5.61" width="4.87" height="0.02" transform="translate(-0.01 0.01) rotate(-0.1)"/><rect class="cls-50" x="1.27" y="5.59" width="4.87" height="0.02" transform="translate(-0.01 0.01) rotate(-0.1)"/><rect class="cls-49" x="1.27" y="5.58" width="4.87" height="0.02" transform="translate(-0.01 0.01) rotate(-0.1)"/><rect class="cls-48" x="1.27" y="5.56" width="4.87" height="0.02" transform="translate(-0.01 0.01) rotate(-0.1)"/><rect class="cls-47" x="1.27" y="5.54" width="4.87" height="0.02" transform="translate(-0.01 0.01) rotate(-0.1)"/><rect class="cls-46" x="1.27" y="5.53" width="4.87" height="0.02" transform="translate(-0.01 0.01) rotate(-0.1)"/><rect class="cls-45" x="1.27" y="5.51" width="4.87" height="0.02" transform="translate(-0.01 0.01) rotate(-0.1)"/><rect class="cls-44" x="1.27" y="5.5" width="4.87" height="0.02" transform="translate(-0.01 0.01) rotate(-0.1)"/><rect class="cls-43" x="1.27" y="5.48" width="4.87" height="0.02" transform="translate(-0.01 0.01) rotate(-0.1)"/><rect class="cls-42" x="1.27" y="5.47" width="4.87" height="0.02" transform="translate(-0.01 0.01) rotate(-0.1)"/><rect class="cls-41" x="1.27" y="5.45" width="4.87" height="0.02" transform="translate(-0.01 0.01) rotate(-0.1)"/><rect class="cls-40" x="1.27" y="5.43" width="4.87" height="0.02" transform="translate(-0.01 0.01) rotate(-0.1)"/><rect class="cls-39" x="1.27" y="5.42" width="4.87" height="0.02" transform="translate(-0.01 0.01) rotate(-0.1)"/><rect class="cls-38" x="1.27" y="5.4" width="4.87" height="0.02" transform="translate(-0.01 0.01) rotate(-0.1)"/><rect class="cls-37" x="1.27" y="5.39" width="4.87" height="0.02" transform="translate(-0.01 0.01) rotate(-0.1)"/><rect class="cls-36" x="1.27" y="5.37" width="4.87" height="0.02" transform="translate(-0.01 0.01) rotate(-0.1)"/><rect class="cls-35" x="1.27" y="5.36" width="4.87" height="0.02" transform="translate(-0.01 0.01) rotate(-0.1)"/><rect class="cls-34" x="1.27" y="5.34" width="4.87" height="0.02" transform="translate(-0.01 0.01) rotate(-0.1)"/><rect class="cls-33" x="1.27" y="5.32" width="4.87" height="0.02" transform="translate(-0.01 0.01) rotate(-0.1)"/><rect class="cls-32" x="1.27" y="5.31" width="4.87" height="0.02" transform="translate(-0.01 0.01) rotate(-0.1)"/><rect class="cls-31" x="1.27" y="5.29" width="4.87" height="0.02" transform="translate(-0.01 0.01) rotate(-0.1)"/><rect class="cls-30" x="1.27" y="5.28" width="4.87" height="0.02" transform="translate(-0.01 0.01) rotate(-0.1)"/><rect class="cls-29" x="1.27" y="5.26" width="4.87" height="0.02" transform="translate(-0.01 0.01) rotate(-0.1)"/><rect class="cls-28" x="1.27" y="5.24" width="4.87" height="0.02" transform="translate(-0.01 0.01) rotate(-0.1)"/><rect class="cls-27" x="1.27" y="5.23" width="4.87" height="0.02" transform="translate(-0.01 0.01) rotate(-0.1)"/><rect class="cls-26" x="1.27" y="5.21" width="4.87" height="0.02" transform="translate(-0.01 0.01) rotate(-0.1)"/><rect class="cls-25" x="1.27" y="5.2" width="4.87" height="0.02" transform="translate(-0.01 0.01) rotate(-0.1)"/><rect class="cls-24" x="1.27" y="5.18" width="4.87" height="0.02" transform="translate(-0.01 0.01) rotate(-0.1)"/><rect class="cls-23" x="1.27" y="5.17" width="4.87" height="0.02" transform="translate(-0.01 0.01) rotate(-0.1)"/><rect class="cls-22" x="1.27" y="5.15" width="4.87" height="0.02" transform="translate(-0.01 0.01) rotate(-0.1)"/><rect class="cls-21" x="1.27" y="5.13" width="4.87" height="0.02" transform="translate(-0.01 0.01) rotate(-0.1)"/><rect class="cls-20" x="1.27" y="5.12" width="4.87" height="0.02" transform="translate(-0.01 0.01) rotate(-0.1)"/><rect class="cls-19" x="1.27" y="5.1" width="4.87" height="0.02" transform="translate(-0.01 0.01) rotate(-0.1)"/><rect class="cls-18" x="1.27" y="5.09" width="4.87" height="0.02" transform="translate(-0.01 0.01) rotate(-0.1)"/><rect class="cls-17" x="1.27" y="5.07" width="4.87" height="0.02" transform="translate(-0.01 0.01) rotate(-0.1)"/><rect class="cls-16" x="1.27" y="5.06" width="4.87" height="0.02" transform="translate(-0.01 0.01) rotate(-0.1)"/><rect class="cls-15" x="1.27" y="5.04" width="4.87" height="0.02" transform="translate(-0.01 0.01) rotate(-0.1)"/><rect class="cls-14" x="1.27" y="5.02" width="4.87" height="0.02" transform="translate(-0.01 0.01) rotate(-0.1)"/><rect class="cls-13" x="1.27" y="5.01" width="4.87" height="0.02" transform="translate(-0.01 0.01) rotate(-0.1)"/><rect class="cls-12" x="1.27" y="4.99" width="4.87" height="0.02" transform="translate(-0.01 0.01) rotate(-0.1)"/><rect class="cls-11" x="1.27" y="4.98" width="4.87" height="0.02" transform="translate(-0.01 0.01) rotate(-0.1)"/><rect class="cls-10" x="1.27" y="4.96" width="4.87" height="0.02" transform="translate(-0.01 0.01) rotate(-0.1)"/><rect class="cls-9" x="1.27" y="4.94" width="4.87" height="0.02" transform="translate(-0.01 0.01) rotate(-0.1)"/><rect class="cls-8" x="1.27" y="4.93" width="4.87" height="0.02" transform="translate(-0.01 0.01) rotate(-0.1)"/><rect class="cls-7" x="1.27" y="4.91" width="4.87" height="0.02" transform="translate(-0.01 0.01) rotate(-0.1)"/><rect class="cls-6" x="1.27" y="4.9" width="4.87" height="0.02" transform="translate(-0.01 0.01) rotate(-0.1)"/><rect class="cls-5" x="1.27" y="4.88" width="4.87" height="0.02" transform="translate(-0.01 0.01) rotate(-0.1)"/><rect class="cls-4" x="1.27" y="4.87" width="4.87" height="0.02" transform="translate(-0.01 0.01) rotate(-0.1)"/><rect class="cls-3" x="1.27" y="4.85" width="4.87" height="0.02" transform="translate(-0.01 0.01) rotate(-0.1)"/><path class="cls-3" d="M6.14,4.85h0Z"/></g><path class="cls-238" d="M0,4.81,6.08,0l5.78,4.79L6.1,9.59ZM6.07.67.84,4.81,6.09,8.92,11,4.79Z"/></g></g></svg>