<svg xmlns="http://www.w3.org/2000/svg" viewBox="0 0 25.76 29.72"><defs><style>.cls-1{fill:none;stroke:#c2b07e;stroke-miterlimit:10;stroke-width:0.25px;opacity:0.26;}</style></defs><g id="Layer_2" data-name="Layer 2"><g id="Layer_2-2" data-name="Layer 2"><path class="cls-1" d="M12.89.14.14,7.5V22.21l12.73,7.37,12.76-7.35V7.51Zm.77,14.72-.93,0c17.61.52,9.26,15,0,0l.45.81-.47-.8h0c8.35,15.51-8.36,15.51,0,0-.16.26-.32.51-.48.79.16-.28.31-.54.45-.81-9.25,15-17.61.52,0,0l-.92,0h.92c-17.61-.52-9.25-15,0,0-.14-.27-.29-.53-.45-.81.16.28.32.54.48.79-8.36-15.51,8.35-15.51,0,0h0c.15-.25.31-.51.47-.79l-.45.81c9.26-15,17.61-.52,0,0Z"/></g></g></svg>